<svg width="21" height="20" viewBox="0 0 21 20" fill="none" xmlns="http://www.w3.org/2000/svg">
<path fill-rule="evenodd" clip-rule="evenodd" d="M5.80413 0.917769H15.4354C18.0415 0.89575 20.1873 2.96067 20.2654 5.56569V12.5424C20.1872 15.1511 18.0356 17.2175 15.4258 17.1903H13.9308C13.5584 17.1914 13.2063 17.3604 12.9725 17.6503L11.5541 19.4519C11.3174 19.7369 10.9662 19.9017 10.5958 19.9017C10.2254 19.9017 9.87415 19.7369 9.63746 19.4519L8.20954 17.6503C7.9757 17.3604 7.62364 17.1914 7.25121 17.1903H5.80413C3.17579 17.244 0.994943 15.1701 0.916626 12.5424V5.56569C0.994943 2.93797 3.17579 0.864025 5.80413 0.917769ZM7.00204 10.9611C7.399 10.9611 7.72079 10.6393 7.72079 10.2424V7.94235C7.72079 7.5454 7.399 7.2236 7.00204 7.2236C6.60509 7.2236 6.28329 7.5454 6.28329 7.94235V10.2424C6.28329 10.6393 6.60509 10.9611 7.00204 10.9611ZM11.3145 10.2424C11.3145 10.6393 10.9927 10.9611 10.5958 10.9611C10.1988 10.9611 9.87704 10.6393 9.87704 10.2424V7.94235C9.87704 7.5454 10.1988 7.2236 10.5958 7.2236C10.9927 7.2236 11.3145 7.5454 11.3145 7.94235V10.2424ZM14.1895 10.9611C14.5865 10.9611 14.9083 10.6393 14.9083 10.2424V7.94235C14.9083 7.5454 14.5865 7.2236 14.1895 7.2236C13.7926 7.2236 13.4708 7.5454 13.4708 7.94235V10.2424C13.4708 10.6393 13.7926 10.9611 14.1895 10.9611Z" fill="#808383" fill-opacity="0.5"/>
</svg>
