<svg width="20" height="20" viewBox="0 0 20 20" fill="none" xmlns="http://www.w3.org/2000/svg">
<path fill-rule="evenodd" clip-rule="evenodd" d="M7.01491 2.70833C7.24824 2.21667 7.75157 1.875 8.33324 1.875H11.6666C12.2482 1.875 12.7507 2.21667 12.9849 2.70833C13.5541 2.71333 13.9982 2.73917 14.3949 2.89417C14.8684 3.07939 15.2802 3.39418 15.5832 3.8025C15.8891 4.21417 16.0332 4.74167 16.2299 5.4675L16.8482 7.73583L17.0816 8.43667L17.1016 8.46167C17.8524 9.42333 17.4949 10.8533 16.7799 13.7125C16.3249 15.5317 16.0982 16.4408 15.4199 16.9708C14.7416 17.5 13.8041 17.5 11.9291 17.5H8.07074C6.19574 17.5 5.25824 17.5 4.57991 16.9708C3.90157 16.4408 3.67407 15.5317 3.21991 13.7125C2.50491 10.8533 2.14741 9.42333 2.89824 8.46167L2.91824 8.43667L3.15157 7.73583L3.76991 5.4675C3.96741 4.74167 4.11157 4.21333 4.41657 3.80167C4.71968 3.39365 5.13148 3.07916 5.6049 2.89417C6.00157 2.73917 6.44491 2.7125 7.01491 2.70833ZM7.01657 3.96083C6.46491 3.96667 6.24324 3.9875 6.05991 4.05917C5.80488 4.1589 5.58308 4.32842 5.41991 4.54833C5.27324 4.74583 5.18657 5.02167 4.94491 5.91083L4.46991 7.65167C5.31991 7.5 6.48157 7.5 8.06991 7.5H11.9291C13.5182 7.5 14.6791 7.5 15.5291 7.65L15.0549 5.90917C14.8132 5.02 14.7266 4.74417 14.5799 4.54667C14.4167 4.32676 14.1949 4.15723 13.9399 4.0575C13.7566 3.98583 13.5349 3.965 12.9832 3.95917C12.8649 4.20821 12.6784 4.4186 12.4454 4.56595C12.2123 4.7133 11.9423 4.79156 11.6666 4.79167H8.33324C8.05761 4.79164 7.78763 4.7135 7.5546 4.5663C7.32156 4.41911 7.13501 4.20972 7.01657 3.96083Z" fill="white"/>
</svg>
