<svg width="34" height="34" viewBox="0 0 34 34" fill="none" xmlns="http://www.w3.org/2000/svg">
<circle cx="17" cy="17" r="17" fill="#F654AE"/>
<path fill-rule="evenodd" clip-rule="evenodd" d="M14.3135 10.4375C14.5235 9.995 14.9765 9.6875 15.5 9.6875H18.5C19.0235 9.6875 19.4757 9.995 19.6865 10.4375C20.1987 10.442 20.5985 10.4653 20.9555 10.6048C21.3816 10.7715 21.7523 11.0548 22.025 11.4223C22.3002 11.7928 22.43 12.2675 22.607 12.9207L23.1635 14.9622L23.3735 15.593L23.3915 15.6155C24.0672 16.481 23.7455 17.768 23.102 20.3412C22.6925 21.9785 22.4885 22.7968 21.878 23.2738C21.2675 23.75 20.4237 23.75 18.7362 23.75H15.2637C13.5762 23.75 12.7325 23.75 12.122 23.2738C11.5115 22.7968 11.3067 21.9785 10.898 20.3412C10.2545 17.768 9.93271 16.481 10.6085 15.6155L10.6265 15.593L10.8365 14.9622L11.393 12.9207C11.5707 12.2675 11.7005 11.792 11.975 11.4215C12.2478 11.0543 12.6184 10.7712 13.0445 10.6048C13.4015 10.4653 13.8005 10.4413 14.3135 10.4375ZM14.315 11.5647C13.8185 11.57 13.619 11.5887 13.454 11.6532C13.2244 11.743 13.0248 11.8956 12.878 12.0935C12.746 12.2713 12.668 12.5195 12.4505 13.3197L12.023 14.8865C12.788 14.75 13.8335 14.75 15.263 14.75H18.7362C20.1665 14.75 21.2112 14.75 21.9762 14.885L21.5495 13.3183C21.332 12.518 21.254 12.2697 21.122 12.092C20.9751 11.8941 20.7755 11.7415 20.546 11.6517C20.381 11.5872 20.1815 11.5685 19.685 11.5632C19.5785 11.7874 19.4106 11.9767 19.2009 12.1094C18.9911 12.242 18.7481 12.3124 18.5 12.3125H15.5C15.2519 12.3125 15.0089 12.2421 14.7992 12.1097C14.5895 11.9772 14.4216 11.7887 14.315 11.5647Z" fill="white"/>
</svg>
