<svg width="22" height="22" viewBox="0 0 22 22" fill="none" xmlns="http://www.w3.org/2000/svg">
<g clip-path="url(#clip0_226_1599)">
<path fill-rule="evenodd" clip-rule="evenodd" d="M12.4428 2.87638C12.2772 2.84716 12.1067 2.86362 11.9497 2.92401C11.7926 2.9844 11.6551 3.08642 11.5517 3.21912C11.4483 3.35182 11.383 3.51019 11.3628 3.6772C11.3427 3.84421 11.3684 4.01356 11.4373 4.16705C11.894 5.18445 12.0306 6.31666 11.8291 7.41352C11.6275 8.51037 11.0973 9.52004 10.3087 10.3086C9.52016 11.0972 8.51049 11.6274 7.41363 11.829C6.31678 12.0305 5.18457 11.8939 4.16717 11.4371C4.01364 11.368 3.84418 11.3421 3.67702 11.3622C3.50986 11.3822 3.35134 11.4475 3.2185 11.5509C3.08565 11.6543 2.98353 11.792 2.92311 11.9492C2.86269 12.1063 2.84626 12.2769 2.87558 12.4427C3.23437 14.4755 4.34217 16.2999 5.98031 17.5559C7.61845 18.8119 9.66791 19.4081 11.7241 19.2269C13.7804 19.0457 15.694 18.1003 17.0873 16.5772C18.4805 15.0541 19.2522 13.0641 19.25 10.9999C19.25 9.06201 18.5678 7.18598 17.3232 5.70065C16.0786 4.21532 14.3508 3.21547 12.4428 2.87638Z" fill="#0FA958"/>
</g>
<defs>
<clipPath id="clip0_226_1599">
<rect width="22" height="22" fill="white"/>
</clipPath>
</defs>
</svg>
