<svg width="23" height="23" viewBox="0 0 23 23" fill="none" xmlns="http://www.w3.org/2000/svg">
<path d="M11.615 12.3337C12.012 12.3337 12.3338 12.0119 12.3338 11.6149C12.3338 11.218 12.012 10.8962 11.615 10.8962C11.2181 10.8962 10.8963 11.218 10.8963 11.6149C10.8963 12.0119 11.2181 12.3337 11.615 12.3337Z" fill="#808383" fill-opacity="0.5"/>
<path fill-rule="evenodd" clip-rule="evenodd" d="M13.8475 0.958252H9.38262C4.73004 0.958252 0.958374 4.72991 0.958374 9.38249V13.8473C0.958374 18.4999 4.73004 22.2716 9.38262 22.2716H13.8475C18.5 22.2716 22.2717 18.4999 22.2717 13.8473V9.38249C22.2717 7.14825 21.3842 5.00551 19.8043 3.42566C18.2245 1.8458 16.0817 0.958252 13.8475 0.958252ZM15.6376 8.86651L14.4372 13.721C14.3432 14.0999 14.0474 14.3958 13.6684 14.4897L8.86662 15.6375C8.50879 15.7256 8.13095 15.6202 7.87037 15.3596C7.60979 15.099 7.50439 14.7212 7.59245 14.3633L8.79291 9.56151C8.88684 9.18259 9.1827 8.88673 9.56162 8.79279L14.3634 7.59234C14.7213 7.50428 15.0991 7.60968 15.3597 7.87026C15.6203 8.13083 15.7257 8.50867 15.6376 8.86651Z" fill="#808383" fill-opacity="0.5"/>
</svg>
