<svg width="23" height="23" viewBox="0 0 23 23" fill="none" xmlns="http://www.w3.org/2000/svg">
<path d="M11.615 12.3339C12.012 12.3339 12.3337 12.0121 12.3337 11.6152C12.3337 11.2182 12.012 10.8964 11.615 10.8964C11.218 10.8964 10.8962 11.2182 10.8962 11.6152C10.8962 12.0121 11.218 12.3339 11.615 12.3339Z" fill="#6149C3"/>
<path fill-rule="evenodd" clip-rule="evenodd" d="M13.8474 0.958496H9.38257C4.72999 0.958496 0.958332 4.73016 0.958332 9.38274V13.8476C0.958332 18.5002 4.72999 22.2718 9.38257 22.2718H13.8474C18.5 22.2718 22.2717 18.5002 22.2717 13.8476V9.38274C22.2717 7.14849 21.3841 5.00575 19.8043 3.4259C18.2244 1.84605 16.0817 0.958496 13.8474 0.958496ZM15.6376 8.86675L14.4371 13.7212C14.3432 14.1001 14.0473 14.396 13.6684 14.4899L8.86658 15.6377C8.50874 15.7258 8.13091 15.6204 7.87033 15.3598C7.60975 15.0992 7.50435 14.7214 7.59241 14.3636L8.79287 9.56175C8.8868 9.18283 9.18266 8.88697 9.56158 8.79304L14.3634 7.59258C14.7212 7.50452 15.0991 7.60992 15.3596 7.8705C15.6202 8.13108 15.7256 8.50891 15.6376 8.86675Z" fill="#6149C3"/>
</svg>
