<svg width="28" height="25" viewBox="0 0 28 25" fill="none" xmlns="http://www.w3.org/2000/svg">
<path d="M23.4891 11.25C23.5968 11.25 23.6899 11.3198 23.7079 11.4177C23.8134 11.9656 23.8706 12.5552 23.8706 13.125C23.874 15.4322 22.9576 17.6589 21.2981 19.376C21.2595 19.4157 21.2059 19.4398 21.1485 19.4433C21.0911 19.4468 21.0345 19.4294 20.9907 19.3948L18.2476 17.2385C18.224 17.2197 18.2047 17.1965 18.191 17.1706C18.1772 17.1446 18.1692 17.1163 18.1676 17.0874C18.1659 17.0585 18.1705 17.0296 18.1812 17.0024C18.1919 16.9752 18.2084 16.9503 18.2297 16.9292C18.7821 16.3709 19.2072 15.7147 19.4795 15H13.9979C13.9384 15 13.8813 14.9781 13.8392 14.939C13.7971 14.8999 13.7735 14.8469 13.7735 14.7917V11.4583C13.7735 11.3438 13.8745 11.25 13.9979 11.25H23.4891ZM16.5479 18.125C16.5881 18.1055 16.6337 18.0974 16.6788 18.1019C16.7239 18.1063 16.7666 18.1231 16.8015 18.15L19.6825 20.4135C19.7082 20.4334 19.7287 20.4585 19.7424 20.4868C19.7561 20.5151 19.7627 20.546 19.7616 20.577C19.7605 20.6081 19.7518 20.6385 19.7362 20.6659C19.7205 20.6934 19.6983 20.7171 19.6713 20.7354C17.9546 21.8856 15.8905 22.5032 13.7735 22.5C12.0906 22.5008 10.4343 22.1107 8.9553 21.3654C7.47629 20.62 6.22158 19.5429 5.3054 18.2323C5.27538 18.189 5.26403 18.1367 5.27359 18.086C5.28315 18.0352 5.31293 17.9896 5.357 17.9583L8.21224 15.9146C8.23849 15.8964 8.2686 15.8835 8.30058 15.8769C8.33257 15.8702 8.3657 15.87 8.39781 15.8761C8.42992 15.8822 8.46027 15.8945 8.48688 15.9123C8.51348 15.93 8.53573 15.9528 8.55217 15.9792C9.33712 17.2179 10.6031 18.1304 12.0901 18.5295C13.5771 18.9286 15.1723 18.7838 16.5479 18.125ZM7.80499 14.0896C7.81216 14.1278 7.80802 14.167 7.793 14.2032C7.77798 14.2393 7.75265 14.271 7.71972 14.2948L4.65133 16.4896C4.62425 16.5093 4.59256 16.5229 4.55881 16.5292C4.52506 16.5354 4.49019 16.5343 4.45701 16.5258C4.42384 16.5172 4.39327 16.5016 4.36779 16.4801C4.3423 16.4587 4.3226 16.4319 4.31027 16.4021C3.88962 15.3537 3.67492 14.2438 3.6764 13.125C3.6764 11.925 3.91985 10.7771 4.363 9.72188C4.37545 9.69279 4.39492 9.66675 4.41993 9.64577C4.44494 9.62479 4.47481 9.60943 4.50723 9.60087C4.53965 9.59231 4.57376 9.59079 4.60691 9.59642C4.64007 9.60205 4.67139 9.61468 4.69845 9.63333L7.76348 11.7208C7.8364 11.7698 7.87006 11.8563 7.85098 11.9375C7.68675 12.6454 7.67187 13.3761 7.80499 14.0896ZM8.32891 10.1677C8.43661 10.2406 8.58807 10.2115 8.65987 10.1073C9.20668 9.30793 9.96213 8.6498 10.8561 8.19399C11.7501 7.73818 12.7536 7.49946 13.7735 7.5C15.1838 7.49956 16.5495 7.9585 17.6328 8.79688C17.6765 8.83127 17.7325 8.84927 17.7898 8.84735C17.8471 8.84542 17.9015 8.82371 17.9425 8.78646L20.4847 6.425C20.506 6.40534 20.5227 6.38184 20.5339 6.35596C20.5451 6.33008 20.5505 6.30236 20.5498 6.27447C20.5491 6.24659 20.5422 6.21914 20.5297 6.1938C20.5171 6.16846 20.4991 6.14576 20.4768 6.12708C18.6338 4.59542 16.2469 3.749 13.7735 3.75C12.1127 3.74915 10.4774 4.12901 9.01268 4.85588C7.54797 5.58274 6.2992 6.63411 5.3772 7.91667C5.3462 7.96073 5.33462 8.01416 5.34486 8.06593C5.35509 8.11769 5.38635 8.16382 5.43217 8.19479L8.32891 10.1677Z" fill="#E6E6E6"/>
<path d="M24.0755 10.6866H23.2722V10.6481H14.297V14.3518H19.9329C19.1107 16.5079 16.9013 18.0555 14.297 18.0555C10.9927 18.0555 8.31356 15.568 8.31356 12.5C8.31356 9.43193 10.9927 6.94443 14.297 6.94443C15.8223 6.94443 17.21 7.47869 18.2665 8.35137L21.0872 5.73239C19.3062 4.19119 16.9238 3.24072 14.297 3.24072C8.78974 3.24072 4.32458 7.38656 4.32458 12.5C4.32458 17.6134 8.78974 21.7592 14.297 21.7592C19.8043 21.7592 24.2695 17.6134 24.2695 12.5C24.2695 11.8791 24.2006 11.2731 24.0755 10.6866Z" fill="#FFC107"/>
<path d="M5.47443 8.19026L8.75087 10.4213C9.63742 8.38332 11.7845 6.94443 14.297 6.94443C15.8223 6.94443 17.21 7.47869 18.2666 8.35137L21.0873 5.73239C19.3062 4.19119 16.9238 3.24072 14.297 3.24072C10.4666 3.24072 7.14481 5.24859 5.47443 8.19026Z" fill="#FF3D00"/>
<path d="M14.297 21.7594C16.8729 21.7594 19.2134 20.8441 20.983 19.3557L17.8966 16.9307C16.8617 17.6614 15.5972 18.0566 14.297 18.0557C11.7032 18.0557 9.50078 16.52 8.67108 14.377L5.41907 16.7033C7.06951 19.702 10.4212 21.7594 14.297 21.7594Z" fill="#4CAF50"/>
<path d="M24.0755 10.6866H23.2722V10.6482H14.297V14.3519H19.9329C19.5396 15.378 18.8312 16.2747 17.8951 16.9311L17.8966 16.9301L20.983 19.3551C20.7646 19.5394 24.2695 17.1297 24.2695 12.5C24.2695 11.8792 24.2007 11.2732 24.0755 10.6866Z" fill="#1976D2"/>
</svg>
