<svg width="27" height="27" viewBox="0 0 27 27" fill="none" xmlns="http://www.w3.org/2000/svg">
<path fill-rule="evenodd" clip-rule="evenodd" d="M16.2604 4.2786L21.8878 8.43518C22.9723 9.22005 23.6176 10.475 23.625 11.8137V19.3382C23.5553 21.751 21.5512 23.6551 19.138 23.6014H7.87263C5.45535 23.6611 3.44469 21.7552 3.375 19.3382V11.8137C3.38242 10.475 4.02771 9.22005 5.11224 8.43518L10.7396 4.2786C12.3827 3.0738 14.6173 3.0738 16.2604 4.2786ZM8.70395 19.0931H18.2961C18.7375 19.0931 19.0954 18.7352 19.0954 18.2937C19.0954 17.8523 18.7375 17.4944 18.2961 17.4944H8.70395C8.26248 17.4944 7.90461 17.8523 7.90461 18.2937C7.90461 18.7352 8.26248 19.0931 8.70395 19.0931Z" fill="#6149C3"/>
</svg>
