<svg width="14" height="14" viewBox="0 0 14 14" fill="none" xmlns="http://www.w3.org/2000/svg">
<path d="M8.0115 12.726C9.53662 11.3837 12.25 8.6415 12.25 6.125C12.25 4.73261 11.6969 3.39726 10.7123 2.41269C9.72774 1.42812 8.39239 0.875 7 0.875C5.60761 0.875 4.27226 1.42812 3.28769 2.41269C2.30312 3.39726 1.75 4.73261 1.75 6.125C1.75 8.6415 4.4625 11.3837 5.9885 12.726C6.26685 12.9744 6.6269 13.1118 7 13.1118C7.3731 13.1118 7.73315 12.9744 8.0115 12.726ZM5.25 6.125C5.25 5.66087 5.43437 5.21575 5.76256 4.88756C6.09075 4.55937 6.53587 4.375 7 4.375C7.46413 4.375 7.90925 4.55937 8.23744 4.88756C8.56563 5.21575 8.75 5.66087 8.75 6.125C8.75 6.58913 8.56563 7.03425 8.23744 7.36244C7.90925 7.69063 7.46413 7.875 7 7.875C6.53587 7.875 6.09075 7.69063 5.76256 7.36244C5.43437 7.03425 5.25 6.58913 5.25 6.125Z" fill="#F654AE"/>
</svg>
