<svg width="27" height="27" viewBox="0 0 27 27" fill="none" xmlns="http://www.w3.org/2000/svg">
<path d="M24.3712 8.92268C23.7796 7.51078 22.919 6.22747 21.8373 5.14426C20.7588 4.05917 19.4777 3.19645 18.0668 2.6051C16.6214 1.99637 15.0684 1.68433 13.5 1.68752H13.4473C11.852 1.69543 10.3096 2.01184 8.85673 2.63411C7.45787 3.23152 6.18882 4.09577 5.1205 5.17854C4.04928 6.25931 3.19852 7.53814 2.61561 8.94377C2.01053 10.4055 1.70393 11.9734 1.71386 13.5554C1.72177 15.3853 2.15946 17.202 2.97685 18.8262V22.834C2.97685 23.5037 3.52001 24.0469 4.1871 24.0469H8.18964C9.82143 24.8703 11.6221 25.3036 13.4499 25.3125H13.5053C15.082 25.3125 16.6087 25.0067 18.0483 24.4081C19.4522 23.8238 20.7285 22.9712 21.8057 21.898C22.892 20.8196 23.7463 19.5592 24.3448 18.1538C24.9644 16.6984 25.2808 15.1506 25.2888 13.5528C25.294 11.947 24.9829 10.3887 24.3712 8.92268ZM8.2371 14.7656C7.54101 14.7656 6.97411 14.1988 6.97411 13.5C6.97411 12.8013 7.54101 12.2344 8.2371 12.2344C8.93319 12.2344 9.50009 12.8013 9.50009 13.5C9.50009 14.1988 8.93583 14.7656 8.2371 14.7656ZM13.5 14.7656C12.8039 14.7656 12.237 14.1988 12.237 13.5C12.237 12.8013 12.8039 12.2344 13.5 12.2344C14.1961 12.2344 14.763 12.8013 14.763 13.5C14.763 14.1988 14.1961 14.7656 13.5 14.7656ZM18.7629 14.7656C18.0668 14.7656 17.4999 14.1988 17.4999 13.5C17.4999 12.8013 18.0668 12.2344 18.7629 12.2344C19.459 12.2344 20.0259 12.8013 20.0259 13.5C20.0259 14.1988 19.459 14.7656 18.7629 14.7656Z" fill="white"/>
</svg>
