<svg width="40" height="40" viewBox="0 0 40 40" fill="none" xmlns="http://www.w3.org/2000/svg">
<circle cx="20" cy="20" r="20" fill="#6149C3"/>
<g clip-path="url(#clip0_36_424)">
<path d="M22.25 24.75C22.2501 25.1284 22.1072 25.4929 21.8499 25.7704C21.5926 26.0479 21.2399 26.2179 20.8625 26.2463L20.75 26.25H19.25C18.8716 26.2501 18.5071 26.1072 18.2296 25.8499C17.9521 25.5926 17.7821 25.2399 17.7537 24.8625L17.75 24.75H22.25ZM20 12C21.3612 12 22.6693 12.5287 23.6482 13.4746C24.6271 14.4204 25.2003 15.7096 25.247 17.07L25.25 17.25V20.073L26.6165 22.806C26.6761 22.9253 26.706 23.0572 26.7035 23.1905C26.701 23.3238 26.6662 23.4545 26.6021 23.5714C26.5381 23.6884 26.4466 23.788 26.3356 23.8619C26.2246 23.9357 26.0973 23.9816 25.9647 23.9955L25.8785 24H14.1215C13.9881 24 13.8567 23.9677 13.7386 23.9059C13.6204 23.844 13.519 23.7544 13.4431 23.6448C13.3671 23.5351 13.3189 23.4087 13.3025 23.2763C13.2861 23.144 13.3021 23.0096 13.349 22.8848L13.3835 22.806L14.75 20.073V17.25C14.75 15.8576 15.3031 14.5223 16.2877 13.5377C17.2722 12.5531 18.6076 12 20 12Z" fill="white"/>
</g>
<defs>
<clipPath id="clip0_36_424">
<rect width="18" height="18" fill="white" transform="translate(11 10.5)"/>
</clipPath>
</defs>
</svg>
