<svg width="22" height="22" viewBox="0 0 22 22" fill="none" xmlns="http://www.w3.org/2000/svg">
<path d="M3.30555 15.5936C3.35493 16.4339 3.72354 17.2235 4.33596 17.801C4.94838 18.3784 5.75832 18.7 6.60005 18.7H8.80335C8.81105 18.5746 8.83085 18.447 8.86275 18.3183L9.27525 16.6705C9.42923 16.0522 9.74865 15.4875 10.1992 15.037L15.5122 9.72399C15.9215 9.31502 16.4353 9.02639 16.9975 8.88963C17.5597 8.75286 18.1486 8.77323 18.7 8.94849V6.59999L18.6946 6.40639C18.6452 5.56611 18.2766 4.77645 17.6641 4.199C17.0517 3.62155 16.2418 3.29994 15.4 3.29999H11V7.69999L10.9945 7.89359C10.9472 8.70054 10.6053 9.46203 10.0337 10.0336C9.46209 10.6052 8.7006 10.9471 7.89365 10.9945L7.70005 11H3.30005V15.4L3.30555 15.5936ZM3.80385 9.18169C3.62877 9.39436 3.49519 9.63801 3.41005 9.89999H7.70005L7.87275 9.89339C8.39658 9.85229 8.8884 9.62505 9.25924 9.2528C9.63008 8.88056 9.85544 8.38787 9.89455 7.86389L9.90005 7.69999L9.89895 3.40999C9.5706 3.51732 9.27215 3.70046 9.02775 3.94459L3.94465 9.02769L3.80385 9.18169ZM10.978 15.8147L16.291 10.5017C16.4822 10.3107 16.709 10.1593 16.9587 10.056C17.2083 9.95267 17.4759 9.89956 17.746 9.89966C18.0162 9.89976 18.2837 9.95308 18.5333 10.0566C18.7828 10.16 19.0096 10.3117 19.2005 10.5028C19.3915 10.6939 19.543 10.9208 19.6463 11.1704C19.7496 11.42 19.8027 11.6876 19.8026 11.9578C19.8025 12.2279 19.7492 12.4954 19.6457 12.745C19.5422 12.9946 19.3906 13.2213 19.1994 13.4123L13.8864 18.7242C13.5769 19.0338 13.1891 19.2536 12.7644 19.36L11.1166 19.7714C10.9528 19.8122 10.7812 19.81 10.6185 19.7649C10.4557 19.7198 10.3074 19.6334 10.188 19.514C10.0685 19.3947 9.98197 19.2465 9.93672 19.0838C9.89147 18.9211 9.88907 18.7495 9.92975 18.5856L10.3422 16.9378C10.4478 16.5127 10.6676 16.1247 10.978 15.8158" fill="#6149C3"/>
</svg>
