<svg width="25" height="25" viewBox="0 0 25 25" fill="none" xmlns="http://www.w3.org/2000/svg">
<path fill-rule="evenodd" clip-rule="evenodd" d="M8.66228 2.0835H16.3377C19.9712 2.0835 22.9167 5.02899 22.9167 8.66244V16.3379C22.9167 19.9713 19.9712 22.9168 16.3377 22.9168H8.66228C5.02883 22.9168 2.08334 19.9713 2.08334 16.3379V8.66244C2.08334 5.02899 5.02883 2.0835 8.66228 2.0835ZM9.489 10.8545C10.2972 11.6298 11.3803 12.0522 12.5 12.0287C14.8335 12.0777 16.7663 10.2283 16.8202 7.8949C16.8202 7.44072 16.452 7.07253 15.9978 7.07253C15.5436 7.07253 15.1754 7.44072 15.1754 7.8949C15.116 9.31739 13.9231 10.4272 12.5 10.3839C11.0789 10.4271 9.88909 9.31567 9.83553 7.8949C9.83553 7.44072 9.46734 7.07253 9.01316 7.07253C8.55898 7.07253 8.19079 7.44072 8.19079 7.8949C8.21382 9.01459 8.68082 10.0792 9.489 10.8545Z" fill="#707070" fill-opacity="0.5"/>
</svg>
