<svg width="20" height="20" viewBox="0 0 20 20" fill="none" xmlns="http://www.w3.org/2000/svg">
<path d="M3.49167 3.72516C2.89167 3.99183 2.5 4.59183 2.5 5.25016V9.16683C2.5 13.7918 5.7 18.1168 10 19.1668C14.3 18.1168 17.5 13.7918 17.5 9.16683V5.25016C17.5 4.59183 17.1083 3.99183 16.5083 3.72516L10.675 1.1335C10.2417 0.941829 9.75 0.941829 9.325 1.1335L3.49167 3.72516ZM10 5.8335C10.4583 5.8335 10.8333 6.2085 10.8333 6.66683C10.8333 7.12516 10.4583 7.50016 10 7.50016C9.54167 7.50016 9.16667 7.12516 9.16667 6.66683C9.16667 6.2085 9.54167 5.8335 10 5.8335ZM10 9.16683C10.4583 9.16683 10.8333 9.54183 10.8333 10.0002V13.3335C10.8333 13.7918 10.4583 14.1668 10 14.1668C9.54167 14.1668 9.16667 13.7918 9.16667 13.3335V10.0002C9.16667 9.54183 9.54167 9.16683 10 9.16683Z" fill="#F654AE"/>
</svg>
