<svg width="13" height="16" viewBox="0 0 13 16" fill="none" xmlns="http://www.w3.org/2000/svg">
<mask id="mask0_50_209" style="mask-type:luminance" maskUnits="userSpaceOnUse" x="0" y="9" width="13" height="7">
<path fill-rule="evenodd" clip-rule="evenodd" d="M-3.05176e-05 9.69189H12.2854V15.4111H-3.05176e-05V9.69189Z" fill="white"/>
</mask>
<g mask="url(#mask0_50_209)">
<path fill-rule="evenodd" clip-rule="evenodd" d="M6.14336 10.8553C2.83854 10.8553 1.16325 11.423 1.16325 12.5438C1.16325 13.6746 2.83854 14.2478 6.14336 14.2478C9.4474 14.2478 11.1219 13.68 11.1219 12.5593C11.1219 11.4285 9.4474 10.8553 6.14336 10.8553ZM6.14341 15.4111C4.62402 15.4111 -9.15527e-05 15.4111 -9.15527e-05 12.5438C-9.15527e-05 9.9874 3.50638 9.69189 6.14341 9.69189C7.66281 9.69189 12.2854 9.69189 12.2854 12.5593C12.2854 15.1156 8.77967 15.4111 6.14341 15.4111Z" fill="#808383"/>
</g>
<mask id="mask1_50_209" style="mask-type:luminance" maskUnits="userSpaceOnUse" x="2" y="0" width="9" height="9">
<path fill-rule="evenodd" clip-rule="evenodd" d="M2.02417 0H10.261V8.23576H2.02417V0Z" fill="white"/>
</mask>
<g mask="url(#mask1_50_209)">
<path fill-rule="evenodd" clip-rule="evenodd" d="M6.1434 1.10729C4.48284 1.10729 3.13175 2.45761 3.13175 4.11816C3.12632 5.77328 4.46733 7.12282 6.1209 7.12903L6.1434 7.6828V7.12903C7.80317 7.12903 9.15349 5.77794 9.15349 4.11816C9.15349 2.45761 7.80317 1.10729 6.1434 1.10729ZM6.14339 8.23582H6.11857C3.85228 8.22884 2.01644 6.3806 2.02419 4.11585C2.02419 1.84723 3.87167 -0.000244141 6.14339 -0.000244141C8.41434 -0.000244141 10.261 1.84723 10.261 4.11818C10.261 6.38913 8.41434 8.23582 6.14339 8.23582Z" fill="#808383"/>
</g>
</svg>
