<svg width="22" height="22" viewBox="0 0 22 22" fill="none" xmlns="http://www.w3.org/2000/svg">
<path d="M15.2533 20.1664H6.74667C5.82008 20.1327 4.95694 19.687 4.39299 18.951C3.82904 18.215 3.62319 17.2656 3.83167 16.3622L4.05167 15.3172C4.3047 13.9026 5.52074 12.863 6.95751 12.833H15.0425C16.4793 12.863 17.6953 13.9026 17.9483 15.3172L18.1683 16.3622C18.3768 17.2656 18.171 18.215 17.607 18.951C17.0431 19.687 16.1799 20.1327 15.2533 20.1664Z" fill="#6149C3"/>
<path d="M11.4583 10.9997H10.5417C8.51663 10.9997 6.87501 9.35807 6.87501 7.33302V4.91302C6.87256 4.09541 7.19627 3.31058 7.77442 2.73243C8.35256 2.15429 9.13739 1.83058 9.95501 1.83302H12.045C12.8626 1.83058 13.6475 2.15429 14.2256 2.73243C14.8037 3.31058 15.1275 4.09541 15.125 4.91302V7.33302C15.125 8.30548 14.7387 9.23811 14.0511 9.92575C13.3634 10.6134 12.4308 10.9997 11.4583 10.9997Z" fill="#6149C3"/>
</svg>
