<svg width="14" height="14" viewBox="0 0 14 14" fill="none" xmlns="http://www.w3.org/2000/svg">
<g clip-path="url(#clip0_104_266)">
<path d="M12.7695 1.23594C12.6562 1.12127 12.5211 1.0303 12.3723 0.968338C12.2234 0.906371 12.0637 0.874643 11.9025 0.875003H8.54111C8.32061 0.875414 8.10917 0.962761 7.95267 1.11809L1.23294 7.83645C1.00365 8.06621 0.874878 8.37755 0.874878 8.70215C0.874878 9.02675 1.00365 9.33809 1.23294 9.56786L4.43216 12.7671C4.66198 12.9965 4.97343 13.1253 5.29814 13.1253C5.62285 13.1253 5.9343 12.9965 6.16412 12.7671L12.8811 6.05145C13.0367 5.8952 13.1244 5.68382 13.125 5.46328V2.1C13.126 1.9396 13.0951 1.78061 13.0341 1.63227C12.973 1.48393 12.8831 1.34921 12.7695 1.23594ZM10.5 4.375C10.327 4.375 10.1578 4.32369 10.0139 4.22754C9.87 4.13139 9.75785 3.99474 9.69162 3.83485C9.62539 3.67497 9.60806 3.49903 9.64183 3.3293C9.67559 3.15957 9.75892 3.00366 9.8813 2.88128C10.0037 2.75891 10.1596 2.67558 10.3293 2.64182C10.499 2.60805 10.675 2.62538 10.8349 2.69161C10.9947 2.75784 11.1314 2.86999 11.2275 3.01388C11.3237 3.15777 11.375 3.32694 11.375 3.5C11.375 3.73207 11.2828 3.95463 11.1187 4.11872C10.9546 4.28282 10.7321 4.375 10.5 4.375Z" fill="#F654AE"/>
</g>
<defs>
<clipPath id="clip0_104_266">
<rect width="14" height="14" fill="white"/>
</clipPath>
</defs>
</svg>
