<svg width="22" height="22" viewBox="0 0 22 22" fill="none" xmlns="http://www.w3.org/2000/svg">
<path d="M15.2533 20.1666H6.74667C5.82008 20.1329 4.95694 19.6872 4.39299 18.9512C3.82904 18.2153 3.62319 17.2659 3.83167 16.3624L4.05167 15.3174C4.3047 13.9028 5.52074 12.8632 6.95751 12.8333H15.0425C16.4793 12.8632 17.6953 13.9028 17.9483 15.3174L18.1683 16.3624C18.3768 17.2659 18.171 18.2153 17.607 18.9512C17.0431 19.6872 16.1799 20.1329 15.2533 20.1666Z" fill="#808383" fill-opacity="0.5"/>
<path d="M11.4583 10.9999H10.5417C8.51663 10.9999 6.87501 9.35831 6.87501 7.33327V4.91327C6.87256 4.09565 7.19627 3.31082 7.77442 2.73268C8.35256 2.15454 9.13739 1.83082 9.95501 1.83327H12.045C12.8626 1.83082 13.6475 2.15454 14.2256 2.73268C14.8037 3.31082 15.1275 4.09565 15.125 4.91327V7.33327C15.125 8.30573 14.7387 9.23836 14.0511 9.92599C13.3634 10.6136 12.4308 10.9999 11.4583 10.9999Z" fill="#808383" fill-opacity="0.5"/>
</svg>
