<svg width="10" height="18" viewBox="0 0 10 18" fill="none" xmlns="http://www.w3.org/2000/svg">
<path d="M9.72175 5.45815C9.72278 4.36579 9.36306 3.30365 8.69845 2.43673C8.03384 1.56981 7.10154 0.946624 6.04638 0.663976C4.99121 0.381328 3.87224 0.455039 2.86327 0.873658C1.8543 1.29228 1.01181 2.03237 0.466666 2.97898C0.278804 3.30455 0.227966 3.69141 0.325337 4.05445C0.422707 4.4175 0.66031 4.727 0.985874 4.91486C1.31144 5.10272 1.6983 5.15356 2.06134 5.05619C2.42439 4.95882 2.73389 4.72122 2.92175 4.39565C3.1087 4.0727 3.37725 3.80455 3.70047 3.61808C4.0237 3.4316 4.39026 3.33334 4.76342 3.33315C5.327 3.33315 5.8675 3.55703 6.26602 3.95555C6.66453 4.35406 6.88842 4.89457 6.88842 5.45815C6.88842 6.02174 6.66453 6.56224 6.26602 6.96075C5.8675 7.35927 5.327 7.58315 4.76342 7.58315H4.75917C4.66779 7.59234 4.5776 7.61085 4.49 7.6384C4.39487 7.64807 4.30092 7.66705 4.2095 7.69507C4.13174 7.73755 4.05821 7.78736 3.98992 7.84382C3.90854 7.88819 3.83168 7.94038 3.76042 7.99965C3.69672 8.07581 3.64117 8.15843 3.59467 8.24615C3.5429 8.30994 3.49692 8.37821 3.45725 8.45015C3.42639 8.54783 3.40597 8.6485 3.39633 8.75049C3.37196 8.83184 3.35536 8.91533 3.34675 8.99982V10.4165L3.34958 10.4321V11.1277C3.35033 11.5029 3.49992 11.8625 3.76551 12.1276C4.03111 12.3926 4.39102 12.5415 4.76625 12.5415H4.7705C4.95654 12.5411 5.14068 12.5041 5.31242 12.4326C5.48415 12.361 5.64012 12.2564 5.7714 12.1246C5.90269 11.9927 6.00673 11.8364 6.07758 11.6643C6.14843 11.4923 6.18471 11.308 6.18433 11.122L6.1815 10.1842C7.20102 9.88129 8.09588 9.25809 8.73353 8.40688C9.37117 7.55566 9.71769 6.5217 9.72175 5.45815ZM3.7675 15.0773C3.56857 15.2746 3.43261 15.5265 3.37681 15.801C3.32102 16.0756 3.34789 16.3606 3.45404 16.6199C3.56018 16.8792 3.74083 17.1012 3.97314 17.2578C4.20545 17.4144 4.47899 17.4986 4.75917 17.4998C5.13465 17.4966 5.49462 17.3496 5.765 17.089C6.02804 16.8203 6.17534 16.4592 6.17534 16.0832C6.17534 15.7071 6.02804 15.346 5.765 15.0773C5.49383 14.8246 5.13693 14.684 4.76625 14.684C4.39556 14.684 4.03866 14.8246 3.7675 15.0773Z" fill="#FFC700"/>
</svg>
