<svg width="15" height="15" viewBox="0 0 15 15" fill="none" xmlns="http://www.w3.org/2000/svg">
<g clip-path="url(#clip0_104_235)">
<path d="M7.5 1.25C10.9519 1.25 13.75 4.04813 13.75 7.5C13.75 10.9519 10.9519 13.75 7.5 13.75C4.04813 13.75 1.25 10.9519 1.25 7.5C1.25 4.04813 4.04813 1.25 7.5 1.25ZM7.5 3.75C7.33424 3.75 7.17527 3.81585 7.05806 3.93306C6.94085 4.05027 6.875 4.20924 6.875 4.375V7.5C6.87504 7.66575 6.94091 7.82469 7.05813 7.94187L8.93313 9.81687C9.051 9.93072 9.20888 9.99372 9.37275 9.9923C9.53662 9.99087 9.69338 9.92514 9.80926 9.80926C9.92514 9.69338 9.99087 9.53662 9.9923 9.37275C9.99372 9.20888 9.93072 9.051 9.81687 8.93313L8.125 7.24125V4.375C8.125 4.20924 8.05915 4.05027 7.94194 3.93306C7.82473 3.81585 7.66576 3.75 7.5 3.75Z" fill="#C62D00"/>
</g>
<defs>
<clipPath id="clip0_104_235">
<rect width="15" height="15" fill="white"/>
</clipPath>
</defs>
</svg>
