<svg width="22" height="22" viewBox="0 0 22 22" fill="none" xmlns="http://www.w3.org/2000/svg">
<path d="M10.0833 10.0651C10.0833 9.82201 10.1799 9.58885 10.3518 9.41694C10.5237 9.24504 10.7569 9.14846 11 9.14846C11.2431 9.14846 11.4763 9.24504 11.6482 9.41694C11.8201 9.58885 11.9167 9.82201 11.9167 10.0651V15.5651C11.9167 15.8082 11.8201 16.0414 11.6482 16.2133C11.4763 16.3852 11.2431 16.4818 11 16.4818C10.7569 16.4818 10.5237 16.3852 10.3518 16.2133C10.1799 16.0414 10.0833 15.8082 10.0833 15.5651V10.0651ZM11 5.54688C10.7569 5.54688 10.5237 5.64345 10.3518 5.81536C10.1799 5.98727 10.0833 6.22043 10.0833 6.46354C10.0833 6.70666 10.1799 6.93981 10.3518 7.11172C10.5237 7.28363 10.7569 7.38021 11 7.38021C11.2431 7.38021 11.4763 7.28363 11.6482 7.11172C11.8201 6.93981 11.9167 6.70666 11.9167 6.46354C11.9167 6.22043 11.8201 5.98727 11.6482 5.81536C11.4763 5.64345 11.2431 5.54688 11 5.54688Z" fill="#D3A500"/>
<path fill-rule="evenodd" clip-rule="evenodd" d="M11 1.8335C5.93725 1.8335 1.83333 5.93741 1.83333 11.0002C1.83333 16.0629 5.93725 20.1668 11 20.1668C16.0628 20.1668 20.1667 16.0629 20.1667 11.0002C20.1667 5.93741 16.0628 1.8335 11 1.8335ZM3.66667 11.0002C3.66667 12.9451 4.43928 14.8103 5.81455 16.1856C7.18982 17.5609 9.05508 18.3335 11 18.3335C12.9449 18.3335 14.8102 17.5609 16.1855 16.1856C17.5607 14.8103 18.3333 12.9451 18.3333 11.0002C18.3333 9.05524 17.5607 7.18998 16.1855 5.81471C14.8102 4.43945 12.9449 3.66683 11 3.66683C9.05508 3.66683 7.18982 4.43945 5.81455 5.81471C4.43928 7.18998 3.66667 9.05524 3.66667 11.0002Z" fill="#D3A500"/>
</svg>
