<svg width="175" height="175" viewBox="0 0 175 175" fill="none" xmlns="http://www.w3.org/2000/svg">
<path d="M64.1112 149.293C64.1329 143.844 64.669 138.41 65.7125 133.062C65.821 132.512 65.7836 131.943 65.604 131.411C65.4243 130.88 65.1088 130.405 64.6887 130.034C61.5651 127.255 58.7756 124.122 56.3762 120.698C56.0752 120.261 55.8946 119.752 55.8524 119.222C55.8101 118.693 55.9078 118.162 56.1357 117.683C56.3635 117.203 56.7134 116.792 57.1503 116.49C57.5872 116.189 58.0958 116.007 58.625 115.964C64.9775 115.282 69.9475 111.195 70.875 109.48C83.7812 118.729 110.049 113.059 115.5 110.005C118.74 108.219 121.384 105.52 123.104 102.244C123.104 102.244 129.859 103.119 134.129 118.213C134.527 119.571 134.57 121.008 134.253 122.387C133.936 123.766 133.269 125.041 132.317 126.088C127.067 131.697 116.41 133.744 110.915 128.415C111.282 131.863 103.337 134.365 97.0375 134.392C94.9812 133.07 91.3062 128.345 89.355 128.905C87.4037 129.465 86.2662 130.305 85.9599 132.257C83.3349 128.897 77.6824 127.707 74.6462 130.025C71.61 132.344 71.2862 152.837 80.64 155.085C75.7756 155.106 70.9462 154.262 66.3775 152.592C65.7078 152.339 65.1315 151.888 64.7263 151.298C64.3211 150.708 64.1064 150.008 64.1112 149.293Z" fill="#3D9CFB"/>
<path d="M56.6121 51.896C67.7946 16.3098 24.7709 34.4573 40.9584 48.641C42.6471 49.516 44.2046 46.5148 44.9134 45.4473C40.5384 40.9148 49.2359 32.9348 51.9134 40.8885C52.4646 44.1085 49.1309 46.3135 49.5421 50.4348C49.4021 55.9035 55.7984 55.396 56.6121 51.896Z" fill="#3D9CFB"/>
<path d="M59.745 57.9781C56.5863 57.4794 53.305 61.3294 57.0675 63.7619C60.4538 64.1731 63.7963 60.4806 59.745 57.9781Z" fill="#3D9CFB"/>
<path d="M129.894 39.6641C135.468 41.3004 133.394 35.6391 138.574 35.4204C142.074 35.5166 144.27 37.9491 142.293 40.8454C140.315 43.7416 136.789 42.7529 133.543 45.7366C129.08 48.8516 132.974 53.1391 136.36 51.4591C171.5 36.3129 127.497 19.0579 129.894 39.6641Z" fill="#3D9CFB"/>
<path d="M126.778 58.4505C128.283 60.7605 133.358 61.548 132.798 57.103C131.547 54.6618 126.454 54.3643 126.778 58.4505Z" fill="#3D9CFB"/>
<path d="M89.8446 46.5505C89.2234 47.0755 87.9371 48.6155 89.4246 51.3367C91.1746 53.0867 94.7621 53.2267 96.5471 51.6605C97.1334 51.1355 98.2971 49.5867 96.7396 46.8042C95.0684 45.0542 91.5334 45.1067 89.8446 46.5505ZM95.3746 50.3392C94.4996 51.1617 92.2946 51.1267 90.9296 50.2867C89.2934 47.303 93.4146 46.6117 95.3046 47.863C95.7071 48.6767 96.0309 49.718 95.3746 50.3392Z" fill="#001434"/>
<path d="M93.6248 23.7565C99.6973 22.269 99.9335 28.289 95.121 30.6252C91.691 32.314 87.246 38.7452 91.1222 41.5977C92.0736 42.3251 93.254 42.6879 94.4496 42.6205C95.6453 42.5531 96.7774 42.0599 97.641 41.2302C109.891 30.3015 108.342 23.6427 106.338 20.6415C99.601 10.894 77.341 16.6252 83.9998 30.2665C91.8748 33.5565 88.786 25.3752 93.6248 23.7565ZM89.3372 18.8565C98.6735 14.3852 117.258 21.4202 96.3372 39.979C93.651 42.429 89.5122 39.384 92.1722 36.0327C93.8085 32.3577 98.446 31.8852 99.916 28.1577C101.754 23.7127 97.0547 20.589 93.091 22.0327C87.6222 23.2577 90.2648 31.1065 85.0935 28.7702C83.3785 22.7502 86.9748 19.9677 89.311 18.8565H89.3372Z" fill="#001434"/>
<path d="M32.9085 100.993C27.8072 99.348 21.6122 105.447 27.1422 109.498C32.1997 110.784 38.8935 105.98 32.9085 100.993ZM33.1797 105.902C32.3747 107.354 29.8372 108.247 27.8247 107.827C24.7272 104.817 29.2335 101.912 32.1997 102.647C33.0397 103.504 33.8447 104.712 33.1797 105.875V105.902Z" fill="#001434"/>
<path d="M29.2513 96.5741C45.1763 66.0716 19.845 59.8241 6.23876 74.4891C2.86126 79.2841 4.12126 84.6741 9.73876 89.3029C9.86759 89.4124 10.0254 89.4823 10.1931 89.5041C10.3608 89.5258 10.5312 89.4985 10.6838 89.4254C20.055 85.1641 10.4038 82.1454 16.3363 77.4729C26.9063 73.6841 23.2838 84.0529 18.9613 91.8666C17.0188 99.3654 25.5763 102.375 29.2513 96.5741ZM22.6363 97.5979C20.8863 96.9241 20.1775 94.9729 20.6675 92.3479C22.33 89.3816 27.0813 80.0979 23.975 76.3879C19.915 72.3629 9.975 76.7554 12.8713 83.2129C13.405 84.8929 13.7463 85.9341 10.4125 87.5879C-3.18499 75.9766 19.3725 64.8379 28.1838 70.4029C34.0813 74.1129 33.9938 82.9591 27.6938 95.7254C27.1811 96.5576 26.4045 97.1942 25.4878 97.5336C24.5712 97.873 23.5673 97.8956 22.6363 97.5979Z" fill="#001434"/>
<path d="M91.9798 103.066C91.9403 102.834 91.8103 102.627 91.6183 102.491C91.4263 102.355 91.1881 102.301 90.956 102.34C90.724 102.38 90.5171 102.51 90.3809 102.702C90.2447 102.894 90.1903 103.132 90.2298 103.364C90.606 105.298 89.171 105.114 90.0985 106.313C91.3323 107.109 92.3123 105.525 91.9798 103.066Z" fill="#001434"/>
<path d="M124.188 101.588C124.282 101.036 124.323 100.476 124.311 99.9166C142.021 93.5554 137.121 77.1666 124.119 67.5416C105.954 52.6579 64.601 52.9204 58.6248 79.1091C30.1172 92.8204 38.8498 115.588 59.9198 131.557C58.6248 135.319 56.166 152.478 58.651 152.557C58.7705 152.557 58.8887 152.533 58.9984 152.485C59.1082 152.438 59.2071 152.369 59.289 152.282C59.371 152.195 59.4343 152.092 59.4751 151.98C59.5158 151.868 59.5332 151.748 59.526 151.629C59.2198 142.004 60.0598 130.332 68.6523 116.253C68.2498 109.375 60.1823 129.5 60.4623 129.71C55.5673 125.912 51.216 121.46 47.5298 116.48C54.5298 117.242 62.8073 113.383 67.9435 107.538C69.7939 110.135 72.3912 112.106 75.3898 113.19C79.7648 120.015 84.2535 123.34 89.5035 118.44C89.1353 121.55 88.9891 124.681 89.066 127.812C87.2023 127.75 86.1085 128.818 85.1898 130.997C81.1385 128.188 72.721 126.709 69.3698 130.384C66.876 133.963 67.5322 146.799 72.266 152.259C75.591 156.065 81.4273 156.678 87.2723 156.757C90.9735 158.507 95.8122 159.277 101.019 159.277C123.769 159.618 149.371 146.029 143.369 121.538C140.927 111.729 133.42 103.924 124.188 101.588ZM141.54 121.512C137.961 130.603 118.501 132.712 111.877 127.978C111.974 127.287 111.65 122.597 109.637 123.2C109.531 123.253 109.437 123.326 109.361 123.416C109.284 123.506 109.226 123.611 109.191 123.724C109.156 123.837 109.144 123.955 109.156 124.073C109.168 124.191 109.204 124.304 109.261 124.408C112.84 131.46 104.011 133.464 97.711 133.508C95.6898 132.545 93.1173 129.334 90.886 128.319C90.7463 124.599 90.9395 120.874 91.4635 117.189C95.2173 125.493 104.44 118.729 107.555 113.908C113.846 112.315 121.555 108.833 123.699 103.312C132.195 105.438 139.125 112.552 141.54 121.512ZM92.8373 115.903C96.829 115.844 100.807 115.416 104.72 114.625C100.817 118.834 95.4535 122.133 92.8373 115.903ZM66.4998 99.0329C65.9788 101.3 66.1619 103.672 67.0248 105.832C62.5535 111.519 52.3685 116.454 46.0948 114.328C25.4972 81.7429 92.8285 68.6529 70.3848 82.2504C69.5098 81.8829 68.0135 80.3779 67.261 81.6466C67.2083 81.7524 67.1776 81.8678 67.1707 81.9859C67.1639 82.1039 67.181 82.222 67.2211 82.3333C67.2611 82.4445 67.3233 82.5464 67.4039 82.6329C67.4844 82.7194 67.5817 82.7887 67.6898 82.8366C73.2635 85.5316 75.731 89.6091 72.0035 91.9016C71.251 89.6879 69.221 87.8154 66.246 86.6516C66.0244 86.5669 65.7782 86.5737 65.5616 86.6705C65.345 86.7674 65.1757 86.9463 65.091 87.1679C65.0063 87.3895 65.0131 87.6357 65.1099 87.8523C65.2067 88.0689 65.3856 88.2382 65.6073 88.3229C73.2198 90.7379 71.356 100.03 63.5248 96.4954C63.4185 96.4413 63.3024 96.4094 63.1834 96.4018C63.0644 96.3942 62.9451 96.411 62.8329 96.4511C62.7206 96.4913 62.6178 96.554 62.5306 96.6353C62.4434 96.7166 62.3738 96.8149 62.326 96.9241C61.8623 98.7354 65.476 98.8754 66.4998 99.0329ZM84.7523 118.948C82.7485 118.948 80.5435 117.355 78.1898 114.179C81.8045 115.196 85.531 115.764 89.2848 115.868C87.8323 117.88 86.3098 118.922 84.761 118.948H84.7523ZM71.7498 109.078C68.4685 106.453 67.3748 103.005 68.381 98.8229C69.5237 98.5392 70.5359 97.8754 71.2514 96.9404C71.967 96.0055 72.3433 94.855 72.3185 93.6779C72.9084 93.4721 73.4545 93.1575 73.9285 92.7504C72.9748 98.9979 82.066 102.192 85.8548 97.3354C91.2273 90.4579 80.9198 83.0116 75.5123 88.9616C75.3985 86.9754 74.156 85.0154 72.0123 83.3091C74.7786 84.1261 77.6621 84.4751 80.5435 84.3416C80.8585 85.1204 89.5735 89.0579 89.7485 86.0916C89.7357 85.9738 89.6992 85.8599 89.6411 85.7566C89.5829 85.6534 89.5044 85.563 89.4103 85.491C89.3163 85.419 89.2085 85.3669 89.0937 85.3378C88.9788 85.3087 88.8593 85.3032 88.7423 85.3216C87.5173 85.4879 85.2423 84.8141 83.6235 84.1054C90.5219 83.4016 96.9436 80.2621 101.736 75.2504C115.167 84.0004 112.341 91.8754 122.5 99.8029C123.156 111.265 88.191 119.473 71.7498 109.078ZM75.7398 92.6016C76.9473 85.6016 87.7098 88.7166 85.0673 95.2266C82.7835 93.9316 78.2685 93.5991 75.7573 94.2991C75.6632 93.7374 75.6602 93.1643 75.7485 92.6016H75.7398ZM73.6223 151.025C69.2473 146.012 68.941 134.103 70.8398 131.373C71.3473 130.638 72.7823 130.174 74.6285 130.052C71.9335 132.169 71.4085 148.505 77.866 153.677C76.2414 153.185 74.7767 152.27 73.6223 151.025ZM130.375 149.625C119.875 156.625 97.7723 160.72 86.686 154.359C88.121 154.359 91.6035 154.884 91.236 152.81C91.1898 152.701 91.1217 152.602 91.0359 152.519C90.9501 152.437 90.8484 152.373 90.737 152.331C90.6257 152.289 90.5069 152.271 90.3881 152.276C90.2693 152.282 90.1529 152.312 90.046 152.364C88.9348 152.872 85.8373 152.609 83.8423 152.058C82.5726 150.674 81.7176 148.961 81.3748 147.114C82.6173 147.587 87.8673 149.337 87.9635 146.913C87.9417 146.798 87.8969 146.688 87.8319 146.59C87.7669 146.493 87.6829 146.409 87.5849 146.345C87.487 146.28 87.3771 146.236 87.2617 146.215C87.1464 146.194 87.028 146.196 86.9135 146.222C77.621 147.097 72.0385 135.573 85.4698 138.014C86.3448 138.233 87.4998 138.382 88.0948 137.62C89.696 135.205 84.2885 131.749 88.5148 129.597C91.0523 129.177 94.841 134.645 97.2648 135.258C102.585 135.442 109.235 134.12 111.344 129.789C119.919 134.584 136.176 132.318 142.056 124.259C143.684 134.225 139.457 143.43 130.375 149.625Z" fill="#001434"/>
<path d="M145.792 77.9277C144.716 81.5414 153.335 82.2414 153.825 79.0564C154.49 75.8889 160.239 77.4727 161.096 79.4589C162.277 82.1977 158.165 84.2452 155.654 84.2977C151.646 84.3939 144.532 88.2614 146.326 92.2514C146.869 94.2727 150.027 95.5852 152.504 94.7889C157.964 93.5202 170.66 89.5389 170.625 80.4739C170.625 70.1664 153.125 62.5977 145.792 77.9277ZM152.092 93.0477C147.376 93.9227 146.09 89.8802 150.99 87.5352C154.717 85.2864 158.445 87.0539 161.569 83.6502C165.874 78.9777 160.694 75.6089 156.537 75.4952C154.376 75.4252 152.241 76.6939 152.057 78.7852C152.005 79.3014 148.304 79.6602 147.507 78.5139C158.532 57.8027 186.576 85.6802 152.092 93.0477Z" fill="#001434"/>
<path d="M94.1148 99.628C94.3469 99.628 94.5694 99.5359 94.7335 99.3718C94.8976 99.2077 94.9898 98.9851 94.9898 98.753C94.9898 98.521 94.8976 98.2984 94.7335 98.1343C94.5694 97.9702 94.3469 97.878 94.1148 97.878C89.6523 97.878 89.0573 92.9955 94.2023 92.523C94.3198 92.5144 94.4343 92.4821 94.539 92.4281C94.6437 92.3741 94.7364 92.2995 94.8116 92.2088C94.8867 92.1181 94.9428 92.0131 94.9764 91.9003C95.0101 91.7874 95.0206 91.6688 95.0073 91.5518C94.9986 91.4343 94.9663 91.3198 94.9123 91.2151C94.8583 91.1104 94.7837 91.0177 94.693 90.9425C94.6024 90.8674 94.4974 90.8113 94.3845 90.7776C94.2716 90.744 94.1531 90.7335 94.0361 90.7468C86.7648 91.3155 87.2023 99.4793 94.1148 99.628Z" fill="#001434"/>
<path d="M142.957 95.1397C136.771 96.3909 139.79 103.373 145.014 102.918C146.054 102.732 146.985 102.158 147.618 101.311C148.251 100.465 148.54 99.4104 148.426 98.3597C147.787 96.3734 145.25 94.9034 142.957 95.1397ZM144.786 101.142C144.035 101.172 143.292 100.974 142.654 100.577C142.016 100.179 141.512 99.5985 141.207 98.9109C141.741 95.6734 145.766 96.8459 146.659 98.7447C146.519 99.7509 146.072 100.976 144.786 101.142Z" fill="#001434"/>
<path d="M104.204 102.323C104.204 102.323 103.049 102.323 101.107 100.573C100.928 100.415 100.694 100.335 100.456 100.349C100.218 100.364 99.9957 100.473 99.8379 100.652C99.6801 100.83 99.5998 101.064 99.6145 101.302C99.6293 101.54 99.738 101.762 99.9167 101.92C102.218 103.942 103.784 104.099 104.204 104.099C104.44 104.099 104.666 104.005 104.832 103.839C104.999 103.672 105.092 103.446 105.092 103.211C105.092 102.975 104.999 102.749 104.832 102.583C104.666 102.416 104.44 102.323 104.204 102.323Z" fill="#001434"/>
<path d="M100.301 107.1C96.8971 109.944 94.0096 107.398 93.4321 109.157C93.4321 110.504 94.2284 110.242 95.8821 110.382C96.6434 110.53 102.707 109.507 101.561 107.197C101.486 107.105 101.393 107.03 101.289 106.976C101.184 106.921 101.069 106.888 100.951 106.879C100.834 106.871 100.715 106.885 100.604 106.923C100.492 106.961 100.389 107.021 100.301 107.1Z" fill="#001434"/>
<path d="M87.5438 103.25C87.4312 103.216 87.3128 103.204 87.1957 103.217C87.0785 103.229 86.9651 103.265 86.8622 103.322C86.7592 103.379 86.6689 103.457 86.5965 103.55C86.5242 103.642 86.4714 103.749 86.4413 103.863C85.8463 105.893 84.6913 106.313 84.5775 106.339C84.3454 106.403 84.1482 106.556 84.0293 106.766C83.9103 106.975 83.8793 107.223 83.9431 107.455C84.0069 107.687 84.1603 107.884 84.3696 108.003C84.5788 108.122 84.8267 108.153 85.0588 108.089C85.1463 108.089 87.255 107.468 88.1563 104.388C88.1964 104.273 88.2122 104.151 88.2026 104.03C88.1931 103.909 88.1584 103.791 88.1007 103.684C88.0431 103.577 87.9638 103.483 87.8679 103.409C87.772 103.334 87.6616 103.28 87.5438 103.25Z" fill="#001434"/>
<path d="M97.8599 105.001C98.0831 105.044 98.3144 104.998 98.5046 104.874C98.6949 104.75 98.8293 104.556 98.8793 104.334C98.9294 104.112 98.8911 103.88 98.7727 103.686C98.6543 103.492 98.465 103.351 98.2449 103.294C97.4241 102.849 96.7769 102.14 96.4074 101.282C95.9874 100.197 94.2637 100.879 94.7362 101.938C95.7862 104.292 97.2387 104.861 97.8599 105.001Z" fill="#001434"/>
<path d="M97.9999 90.1255C96.9937 101.037 115.185 99.3042 110.88 88.3755C108.36 81.988 98.1837 84.2192 97.9999 90.1255ZM99.7499 90.353C101.237 82.7317 113.137 86.853 108.71 94.0192C106.837 91.8492 102.384 91.473 99.8987 92.2692C99.7288 91.6456 99.6783 90.9954 99.7499 90.353Z" fill="#001434"/>
<path d="M96.4423 85.5051C100.704 84.7964 103.302 81.2876 103.889 80.3426C104.015 80.1419 104.057 79.8992 104.004 79.6678C103.952 79.4364 103.809 79.2354 103.609 79.1089C103.408 78.9824 103.165 78.9409 102.934 78.9934C102.702 79.0459 102.501 79.1882 102.375 79.3889C100.993 81.6011 98.7904 83.1746 96.2498 83.7639C96.0189 83.7894 95.8076 83.9056 95.6623 84.087C95.5171 84.2683 95.4499 84.4999 95.4754 84.7308C95.5009 84.9617 95.6171 85.173 95.7985 85.3182C95.9798 85.4634 96.2114 85.5307 96.4423 85.5051Z" fill="#001434"/>
</svg>
