<svg width="95" height="103" viewBox="0 0 95 103" fill="none" xmlns="http://www.w3.org/2000/svg">
<path d="M81.322 13.7858C76.5879 15.074 76.5195 18.4753 71.3633 19.0403C68.0439 19.4036 63.4036 22.3099 63.42 27.2593C73.4001 20.6974 69.5304 29.951 83.76 23.4444C88.1805 22.5523 89.089 28.1339 98.3098 28.9769C99.2703 29.7312 98.9099 29.3159 99.9393 32.1313C107.013 29.7143 103.028 20.1251 100.73 19.6296C99.5743 19.3759 98.4567 21.4184 94.9063 19.112C90.5648 16.2802 85.3629 12.6857 81.322 13.7858Z" fill="#3D9CFB"/>
<path d="M99.0206 50.1908C92.3819 48.3523 90.9942 58.2946 97.716 58.5641C102.88 58.1296 103.721 51.5016 99.0206 50.1908ZM99.241 56.6431C96.6131 58.398 92.987 54.9198 95.3046 52.3988C98.1454 49.2715 103.282 53.9458 99.241 56.6431Z" fill="#3D9CFB"/>
<path d="M97.0604 73.1303C101.822 70.6641 97.1265 63.7168 92.2495 65.9548C86.2599 68.8199 91.5393 76.4389 97.0604 73.1303ZM92.7721 67.2673C95.6621 65.8909 99.7142 69.668 96.4661 71.8534C92.8162 74.2258 88.495 69.6013 92.7727 67.2673H92.7721Z" fill="#3D9CFB"/>
<path d="M10.9611 27.289C9.18816 31.6327 10.8284 52.1772 13.3002 54.5994C16.6416 57.8803 36.6087 37.6437 38.3811 33.2011C40.1535 28.7585 38.2602 13.4663 37.1811 11.0441C35.603 7.51398 12.7358 22.947 10.9611 27.289ZM15.4246 36.4827C14.4172 34.2639 14.8082 31.1869 15.0449 30.5536C15.4303 29.5134 17.6818 28.0596 19.8949 27.8122C21.3481 27.6466 21.3865 32.7503 21.0068 34.1097C20.7288 35.1018 16.1105 37.9867 15.4275 36.4838L15.4246 36.4827ZM22.9747 44.8678C22.9461 45.2935 22.8324 45.709 22.6404 46.09C22.4485 46.471 22.1822 46.8097 21.8572 47.086C20.2062 48.4985 18.6932 49.4534 17.9547 49.2059C17.2767 48.9799 16.1433 46.8001 16.545 43.3649C16.5895 42.9618 16.722 42.5733 16.9332 42.227C17.1443 41.8807 17.429 41.585 17.7671 41.3609C19.7158 40.0783 20.8447 39.5116 21.4611 39.5116C22.3696 39.506 23.1894 41.7242 22.9747 44.8678ZM28.0948 28.4263C26.8614 26.6432 26.889 23.1153 27.4563 22.1893C28.0563 21.2096 30.1152 19.0518 32.3441 18.8038C33.7979 18.6388 33.8363 23.7419 33.4566 25.1013C33.1758 26.0901 29.0304 29.7784 28.0948 28.4241V28.4263ZM33.9352 36.8194C32.3938 38.4929 30.8141 38.9992 30.3242 38.867C29.8508 38.7404 29.0524 36.8358 28.9756 33.8854C29.0034 33.5284 29.1028 33.1806 29.2678 32.8628C29.4329 32.5451 29.6601 32.2637 29.9361 32.0355C30.8125 31.2217 31.7718 30.5021 32.7984 29.8885C34.0758 29.2501 34.7194 30.6795 35.0392 33.7695C35.1025 34.3286 35.0358 34.8947 34.8443 35.4237C34.6528 35.9528 34.3417 36.4304 33.9352 36.8194Z" fill="#3D9CFB"/>
<path d="M71.4456 60.0948C75.4204 60.3773 78.2007 54.6775 73.8186 52.6797C68.2364 50.0643 64.9984 59.6399 71.4456 60.0948ZM70.2235 54.3143C73.1524 52.1509 76.4334 56.0042 73.5926 57.9144C70.6037 60.3535 67.6301 56.511 70.2235 54.3143Z" fill="#3D9CFB"/>
<path d="M61.5702 65.7815C62.4951 66.0899 62.5392 64.8289 63.0788 64.4164C65.9603 62.1564 70.417 67.3668 66.9485 69.3319C66.6263 69.5485 66.2765 69.7207 65.9083 69.8438C65.7362 69.9063 65.5951 70.0334 65.5151 70.1981C65.435 70.3628 65.4223 70.5522 65.4795 70.7262C65.5367 70.9002 65.6595 71.045 65.8217 71.1301C65.9839 71.2151 66.1728 71.2336 66.3484 71.1817C71.0498 69.8438 70.1029 64.4989 65.9631 62.6819C63.9817 61.8106 59.9408 63.8932 61.5702 65.7815Z" fill="#3D9CFB"/>
<path d="M71.2039 43.5613C74.6114 41.1945 73.0865 39.4164 70.0423 41.2448C67.7687 42.6008 68.9467 45.132 71.2039 43.5613Z" fill="#3D9CFB"/>
<path d="M87.9175 34.7472C84.8953 36.6077 85.7705 38.7767 89.443 36.8444C91.8691 35.5647 90.1691 33.3516 87.9175 34.7472Z" fill="#3D9CFB"/>
<path d="M37.7716 21.1472C37.2981 20.2499 36.5444 20.8714 35.8173 21.5653C35.0901 22.2591 34.8488 23.1563 35.6579 23.2721C36.0817 23.2992 36.3625 22.9416 36.7037 22.6557C37.2433 22.1986 38.1846 21.9286 37.7716 21.1472Z" fill="#001434"/>
<path d="M37.6857 19.0824C37.7682 19.043 37.8417 18.9868 37.9014 18.9175C37.9611 18.8482 38.0058 18.7673 38.0327 18.6799C38.0596 18.5924 38.068 18.5003 38.0575 18.4095C38.0469 18.3186 38.0177 18.2309 37.9716 18.1519C37.3444 17.1004 36.3896 18.3395 35.7754 18.7022C35.0929 19.0977 34.0301 20.0458 34.7019 20.591C35.1793 20.982 36.567 19.6277 37.6857 19.0824Z" fill="#001434"/>
<path d="M37.2493 31.3257C36.5391 31.9093 35.6639 32.5919 36.2583 33.4507C36.6713 34.0507 37.5629 32.8393 38.1189 32.4376C38.8624 31.9037 37.9652 30.7533 37.2493 31.3257Z" fill="#001434"/>
<path d="M16.572 55.4373C15.5149 55.4594 15.6912 56.5673 16.7483 56.4775C22.3356 56.0374 39.7698 38.6455 41.5094 34.2815C43.414 29.4976 41.3574 13.9516 40.2986 11.582C39.9347 10.756 38.8064 10.9707 39.098 11.8459C40.1336 14.9675 41.8563 29.6163 40.2048 33.7617C38.4929 38.0523 21.2999 55.3272 16.572 55.4373Z" fill="#001434"/>
<path d="M70.6094 106.838C71.8761 106.733 75.3056 97.49 75.713 96.3289C79.2471 96.5159 86.2163 96.6425 90.0369 96.373C90.312 96.5379 94.397 106.805 95.1219 106.838C95.8468 106.871 96.1016 106.606 95.7654 105.847L91.5279 96.2628C92.9036 96.1596 94.2704 95.9608 95.6185 95.6678C95.9485 95.9876 98.5746 102.076 99.2074 102.18C99.8402 102.285 100.188 101.888 99.8408 101.173C99.4939 100.458 96.9886 95.2605 96.9886 95.2605C103.331 91.9027 105.407 78.5144 105.417 78.367C105.549 77.4748 104.14 77.5579 104.013 78.4715C102.175 87.0318 100.16 91.975 96.6366 93.7644C92.8054 95.713 84.8281 95.1571 75.3271 94.9096C74.27 94.8819 72.1507 94.5847 72.0789 95.4181C72.0077 96.2718 72.723 96.0622 74.2095 96.2549L69.9647 105.85C69.9169 105.957 69.8967 106.075 69.906 106.192C69.9153 106.309 69.9538 106.421 70.0179 106.52C70.082 106.618 70.1698 106.699 70.2731 106.754C70.3764 106.81 70.492 106.839 70.6094 106.838Z" fill="#001434"/>
<path d="M48.4348 66.7115C49.354 65.3849 51.5174 63.5475 50.4275 62.539C50.3531 62.482 50.2677 62.4412 50.1767 62.4192C50.0856 62.3971 49.991 62.3943 49.8988 62.4109C49.8065 62.4274 49.7188 62.4631 49.6412 62.5155C49.5635 62.5679 49.4977 62.636 49.4478 62.7153C44.3945 69.9044 36.1641 83.557 30.5989 86.1662C26.4314 87.2894 9.90008 84.135 8.62035 84.0192C7.94235 83.9587 7.43103 84.9057 8.95031 85.4012C13.2166 86.7832 26.4286 88.1923 30.2819 87.6471C30.6523 89.2599 30.7548 90.9227 30.5853 92.5688C28.201 92.9597 22.3222 92.6733 15.0772 91.5665C14.1732 91.4184 14.4444 92.7394 15.3529 92.8603C19.0525 93.4598 22.7806 93.8677 26.5224 94.0824C26.5444 97.2865 26.5167 106.039 26.5167 106.138C26.5495 107.531 27.9258 106.171 27.9258 105.781C27.9258 105.688 27.9535 97.3747 27.9315 94.1157C29.2872 94.2073 30.6461 93.9907 31.9063 93.4824C36.2828 91.4619 41.9525 83.9971 46.6872 76.1369C47.8924 74.1441 46.7584 73.478 46.3567 74.1882C41.9746 81.9061 35.9042 89.4997 32.0622 91.997C32.1443 90.413 32.0074 88.8252 31.6554 87.2787C36.2635 84.8836 41.0254 77.4409 48.4348 66.7115Z" fill="#001434"/>
<path d="M81.3223 25.2479C82.1698 25.3145 82.4676 23.8387 84.7078 24.2133C84.8895 24.2553 85.0804 24.2239 85.2391 24.126C85.3978 24.028 85.5114 23.8714 85.5553 23.6901C85.3412 20.9928 78.1962 25.0004 81.3223 25.2479Z" fill="#001434"/>
<path d="M37.0897 28.2497C36.3552 28.8446 34.6399 30.1492 35.7744 30.7713C36.5174 31.1787 37.3762 29.8905 38.3118 29.23C39.0497 28.6887 38.053 27.4587 37.0897 28.2497Z" fill="#001434"/>
<path d="M81.0362 30.2689C80.9474 32.7843 82.1972 36.1093 84.6748 35.0081C86.8709 33.6595 88.1868 33.0046 90.1795 32.6849C90.4655 32.6307 90.7289 32.4931 90.9367 32.2894C91.1444 32.0857 91.2871 31.825 91.3468 31.5402C92.4339 24.3178 81.8684 22.1324 81.0362 30.2689ZM83.9866 27.2298C84.5951 29.044 85.3921 30.7894 86.3647 32.4374C85.4674 32.7199 84.5973 33.7256 83.6176 33.7934C82.2074 32.6414 81.7294 28.8926 83.9866 27.2326V27.2298Z" fill="#001434"/>
<path d="M83.9262 37.0121C83.6531 36.9781 83.3759 37.0115 83.1187 37.1094C82.8615 37.2073 82.6323 37.3667 82.451 37.5737C81.1791 38.7348 79.6983 39.1258 77.6558 39.6642C74.7602 40.0552 75.2393 43.0503 77.4083 43.6283C78.3988 47.8093 85.302 44.7786 85.8692 41.7835C86.3427 40.1145 85.9517 37.4856 83.9262 37.0121ZM81.2888 44.1684C80.3367 44.4385 79.0208 44.521 78.8028 43.574C79.6005 43.2435 79.0062 42.0824 78.2519 42.2915C77.3213 42.5502 76.028 41.4654 77.6304 41.1298C79.8655 40.6179 81.7651 39.9625 83.4052 38.68C83.5037 38.6029 83.6276 38.5659 83.7522 38.5764C83.8768 38.5869 83.9928 38.644 84.077 38.7365C85.8235 40.7388 83.5188 43.5356 81.2888 44.1684Z" fill="#001434"/>
<path d="M31.7114 35.7132C31.4029 35.8946 31.0617 34.8595 30.7758 34.3645C30.6796 34.2074 30.5257 34.0941 30.347 34.0491C30.1683 34.004 29.9791 34.0308 29.8199 34.1236C29.6607 34.2164 29.5442 34.3679 29.4954 34.5456C29.4466 34.7233 29.4693 34.9131 29.5588 35.0742C30.8249 37.2381 31.9538 37.5602 32.3058 37.4251C33.407 36.9901 33.4397 33.5549 34.007 31.6446C34.12 31.2706 33.5279 30.8632 33.1375 30.8632C32.025 30.8576 32.0142 35.5256 31.7114 35.7132Z" fill="#001434"/>
<path d="M17.3376 44.9118C18.8738 47.4712 20.2886 47.9667 20.6185 46.0791C21.4282 41.515 22.1491 40.8105 21.24 40.6449C19.8145 40.4969 19.9078 44.8457 19.484 45.5502C19.1382 45.1264 18.827 44.6754 18.5535 44.2016C18.4557 44.0478 18.3021 43.9379 18.125 43.895C17.9478 43.852 17.761 43.8794 17.6036 43.9713C17.4462 44.0632 17.3306 44.2126 17.281 44.3879C17.2314 44.5633 17.2517 44.7511 17.3376 44.9118Z" fill="#001434"/>
<path d="M6.54768 59.5331C7.12568 61.0744 7.6048 61.41 8.34777 61.7931C9.62467 62.4541 14.0345 63.5384 16.1651 62.2281C24.07 58.7251 42.2365 40.8581 44.1891 35.9641C46.3084 30.6299 44.3434 10.7787 41.3703 7.5802C39.6533 5.74734 34.9858 4.6987 32.293 5.53829C27.434 7.05193 5.6708 19.0525 3.44131 26.1433C1.74744 29.3824 3.78992 52.1841 6.54768 59.5331ZM4.78658 26.5693C5.74708 23.2477 16.2561 15.1241 25.1384 10.2577C32.5699 6.18974 34.6728 5.8869 37.1063 6.99373C35.6746 7.54969 33.3846 8.2486 33.7428 9.13508C33.7854 9.21857 33.8447 9.29241 33.917 9.352C33.9893 9.41159 34.0732 9.45566 34.1633 9.48147C34.2534 9.50728 34.3478 9.51428 34.4407 9.50202C34.5336 9.48977 34.623 9.45852 34.7033 9.41024C36.4424 8.44126 39.4923 7.62653 40.346 8.54579C42.702 11.0951 44.9423 30.274 42.8834 35.4432C41.4217 39.9903 20.415 59.8896 15.0419 61.1846C13.5333 61.4377 12.7299 59.3766 12.2677 57.9533C11.9429 56.951 11.9208 56.4391 11.37 56.4945C10.5168 56.577 11.0728 59.9455 12.5593 61.3936C11.3128 61.283 10.0899 60.9861 8.93142 60.5128C5.82674 59.1037 3.23791 31.9102 4.78658 26.5693Z" fill="#001434"/>
<path d="M24.8466 37.1935C24.3675 37.4969 22.7934 38.0579 23.2335 39.1812C23.6409 40.2162 24.8155 39.1704 25.9037 38.4986C27.2083 37.6947 28.1112 37.4856 27.5332 36.5002C27.1643 35.8392 26.4817 36.1595 24.8466 37.1935Z" fill="#001434"/>
<path d="M110.053 57.0997C109.123 45.5618 104.702 42.9137 99.9737 40.2627C100.694 37.8013 100.833 35.2064 100.381 32.6821C106.849 29.6045 107.835 14.5874 100.889 12.0494C100.497 12.0554 100.111 12.1567 99.7669 12.3447C99.4224 12.5327 99.1288 12.8018 98.9115 13.1286C97.1662 15.9304 89.8834 8.10799 85.4024 8.42157C81.4474 7.96505 75.5482 8.03624 69.9609 13.8879C69.5202 14.3501 68.3371 14.879 66.9715 15.4846C58.1857 18.4226 50.8255 28.1514 60.4593 36.6072C60.599 37.1466 60.7774 37.6754 60.9932 38.1892C59.9888 38.2651 58.9926 38.4254 58.0151 38.6683C56.4077 34.8918 51.4809 36.7637 51.1006 40.5622C42.942 43.8538 44.5167 60.4502 54.1612 59.7965C62.7436 60.3196 65.133 43.7053 57.2388 42.4775C57.0589 42.4491 56.875 42.4914 56.7256 42.5956C56.5762 42.6997 56.4729 42.8577 56.4373 43.0363C56.4017 43.2149 56.4367 43.4004 56.5348 43.5539C56.6329 43.7073 56.7866 43.8168 56.9636 43.8595C58.7716 44.0742 60.8333 46.1274 60.5796 49.2598C59.3841 49.1591 58.1987 48.9622 57.0348 48.671C56.8565 48.6279 56.6684 48.6561 56.5105 48.7495C56.3526 48.8429 56.2373 48.9942 56.1893 49.1713C56.1412 49.3484 56.1641 49.5372 56.2531 49.6976C56.3421 49.8581 56.4902 49.9775 56.6659 50.0304C57.9354 50.3524 59.2299 50.5661 60.5356 50.6694C60.4531 51.7576 60.2311 52.8307 59.8751 53.8623C58.4967 53.6911 57.1404 53.3736 55.8291 52.9153C55.6568 52.8654 55.472 52.8831 55.3123 52.9648C55.1526 53.0465 55.0301 53.186 54.9697 53.3549C54.9093 53.5238 54.9156 53.7094 54.9873 53.8738C55.0591 54.0382 55.1908 54.169 55.3557 54.2397C56.6334 54.6825 57.9492 55.0068 59.2864 55.2086C58.0309 57.6381 55.7173 58.8619 52.7516 58.2529C44.5822 56.5743 46.2541 43.538 51.9312 41.7549C52.0598 41.7158 52.1744 41.6405 52.2614 41.538C52.3484 41.4355 52.404 41.3101 52.4216 41.1769C52.5753 40.0265 53.3352 38.1377 54.7059 37.9954C56.0218 37.8824 56.3794 38.5954 56.7094 39.305C56.8305 39.5666 57.0307 39.7837 57.2816 39.9256C57.5326 40.0675 57.8217 40.1271 58.1083 40.096C59.2914 39.9587 60.5248 39.4683 61.5486 39.5678C63.8086 45.15 64.89 47.3461 67.2851 48.9705C61.9006 55.1414 59.8836 63.9995 61.6916 68.0342C51.7476 72.1519 52.8211 77.5906 48.579 85.9254C44.7201 87.538 42.0392 87.4114 41.703 91.1879C41.66 91.676 41.7236 92.1676 41.8894 92.6286C42.0553 93.0897 42.3194 93.5092 42.6635 93.858C43.8302 94.8157 60.4497 101.697 65.7567 101.697C67.9365 101.703 68.2778 100.095 69.8812 96.9074C70.7621 95.0084 71.852 92.6416 72.7819 92.1613C84.9537 90.3533 98.0776 95.7559 99.5036 77.5069C108.781 74.5345 110.73 68.3302 110.053 57.0997ZM60.1282 34.4743C53.2087 26.5473 60.5463 19.0989 67.5433 16.7649C69.1072 16.0655 70.34 15.5151 70.9734 14.8547C76.0708 9.51484 81.2733 9.35495 85.2312 9.81203C90.389 9.61937 96.7063 18.3571 100.039 13.9518C100.129 13.8099 100.25 13.6907 100.393 13.6038C100.536 13.5169 100.698 13.4647 100.865 13.4512C105.825 16.6327 105.198 28.0559 100.074 31.2374C98.0866 22.8477 93.3073 27.6706 88.8054 21.6889C86.1668 18.1814 82.4208 18.939 78.7483 21.2098C71.487 25.6959 72.0345 18.6876 66.8523 22.8613C64.568 24.697 59.8474 28.7435 60.1282 34.4743ZM62.6662 38.5756C59.5779 32.5425 63.2996 27.4722 67.7636 23.9421C71.6282 20.7109 71.5435 27.101 79.3902 22.4669C83.0695 20.2939 85.6329 19.7091 87.8239 22.6929C89.9325 24.7794 91.7547 26.5852 96.0164 27.1084C96.7046 27.1909 97.7945 28.4293 98.5488 30.9453C104.747 49.7502 74.7674 52.3209 69.5377 48.649C66.3709 47.0642 65.5403 45.6991 62.6662 38.5756ZM66.2997 100.243C63.0572 101.069 44.4003 94.088 43.5635 92.7721C41.7086 89.8494 45.2427 88.655 48.6672 87.3831C50.2964 88.9611 52.063 90.3907 53.946 91.6551C54.1055 92.705 53.9161 93.7782 53.407 94.7101C53.3417 94.8168 53.3057 94.9389 53.3029 95.064C53.3 95.1891 53.3303 95.3127 53.3907 95.4223C53.451 95.5319 53.5393 95.6236 53.6466 95.688C53.7538 95.7525 53.8762 95.7874 54.0014 95.7892C55.2234 95.4864 55.2952 93.4383 55.3941 92.6128C56.1286 93.0806 56.9196 93.5541 57.7722 94.0332C58.0032 94.8039 57.5354 95.9983 57.332 96.3836C57.2545 96.5474 57.2431 96.7347 57.3002 96.9067C57.3572 97.0787 57.4783 97.222 57.6383 97.3071C57.7983 97.3921 57.9849 97.4122 58.1593 97.3632C58.3338 97.3142 58.4827 97.1999 58.575 97.0441C58.933 96.3525 59.1587 95.6003 59.2406 94.8259C61.9403 96.226 64.7477 97.4078 67.6359 98.36C67.1308 99.3176 66.624 100.16 66.2997 100.243ZM90.78 89.5025C86.112 91.2037 76.316 89.3759 72.135 90.915C70.6547 91.6195 69.3501 94.7185 68.2546 97.0735C57.7942 93.6643 51.5459 88.1962 49.8503 86.5735C53.8855 78.8669 52.7516 73.1305 62.4679 69.228C64.1798 70.9292 68.1326 72.883 73.3074 73.8192C77.4415 79.6104 91.336 79.2743 98.0634 77.8708C97.8708 80.4359 96.7916 87.7188 90.78 89.5025ZM76.2691 64.9888C75.1427 64.9644 74.0233 64.8035 72.9356 64.5097C74.1137 59.6654 79.8716 61.8999 80.0812 59.9953C80.0648 59.8857 79.767 57.3477 82.2773 56.8466C84.3678 56.4669 85.2617 59.9682 85.2888 60.0564C87.4522 67.1138 86.4945 74.5124 84.2757 77.0775C78.3195 76.4668 74.7578 74.5452 73.4803 71.2479C74.2679 71.2202 76.5313 72.1287 76.6403 70.7744C76.643 70.6812 76.6266 70.5884 76.5921 70.5017C76.5576 70.415 76.5058 70.3363 76.4399 70.2703C76.3739 70.2043 76.2952 70.1525 76.2085 70.1181C76.1218 70.0836 76.029 70.0672 75.9358 70.0698C74.967 70.0465 74.0025 69.9342 73.0543 69.7342C72.7686 68.4781 72.6503 67.1896 72.7023 65.9024C73.3803 65.8911 76.7923 67.2731 76.9686 65.6877C76.9706 65.5953 76.9539 65.5035 76.9194 65.4178C76.885 65.332 76.8335 65.2541 76.7682 65.1888C76.7028 65.1235 76.6249 65.0721 76.5391 65.0378C76.4534 65.0034 76.3615 64.9867 76.2691 64.9888ZM105.254 72.6406C102.424 76.2628 93.9853 77.7934 85.9306 77.2098C88.0997 73.7469 88.5511 66.7889 86.916 60.6287C88.9308 60.7773 93.4338 61.1078 95.3774 61.1937C95.4703 61.1997 95.5635 61.187 95.6514 61.1562C95.7392 61.1255 95.82 61.0774 95.8889 61.0147C95.9577 60.9521 96.0133 60.8762 96.0522 60.7916C96.0911 60.7071 96.1126 60.6155 96.1153 60.5225C96.1097 59.4603 93.9519 59.9665 92.531 59.614C92.2179 58.2126 91.9915 56.7932 91.853 55.364C91.8297 55.1819 91.7364 55.016 91.5928 54.9015C91.4493 54.7871 91.2667 54.7331 91.084 54.751C90.9013 54.7689 90.7327 54.8574 90.6141 54.9976C90.4956 55.1378 90.4363 55.3187 90.4489 55.5019C90.4602 55.6149 90.6913 57.8856 91.0552 59.5094C89.1907 59.3772 87.3386 59.2394 86.4968 59.1789C85.3295 54.2301 79.1806 54.1092 78.6574 59.4156C71.1101 59.5038 70.0315 66.3849 72.3435 72.1931C68.3026 71.301 64.9392 69.6438 63.5465 68.3229C61.1079 66.0064 62.6543 56.2725 68.5185 49.705C77.0844 53.5035 92.8615 51.8192 99.4567 41.5854C103.954 44.1177 107.785 46.5574 108.644 57.2138C109.244 64.6142 108.165 69.519 105.252 72.6406H105.254Z" fill="#001434"/>
<path d="M13.0767 26.9931C12.6513 27.5131 12.4111 28.16 12.3942 28.8316C11.9422 32.5312 12.036 44.8211 13.0931 49.3321C13.4948 51.0497 14.8825 50.6977 14.5135 49.1343C13.6988 45.6714 12.8507 31.43 14.0954 28.3751C15.2124 25.6281 26.7345 17.0186 32.537 14.2162C33.8964 13.5608 33.8303 12.4432 32.3884 13.093C24.4609 16.6768 15.5373 24.0975 13.0767 26.9931Z" fill="#001434"/>
<path d="M18.1804 35.5207C18.5657 35.4817 18.9149 35.3936 19.1935 34.5602C19.7381 32.9415 20.7952 28.6644 19.672 28.8294C19.111 28.9125 18.881 29.0277 18.7528 29.7763C18.516 31.1527 18.2573 33.707 17.9216 33.7347C17.5143 33.7675 16.9611 31.6815 16.204 32.1714C15.8792 32.3804 15.5763 32.7601 15.7746 33.0957C17.0295 35.267 17.8058 35.5207 18.1804 35.5207Z" fill="#001434"/>
<path d="M9.12408 43.4312C7.8743 32.6194 8.56812 28.2045 9.26759 26.5146C10.3298 23.9489 17.5194 18.7356 25.6113 13.4783C26.8007 12.7077 26.4814 11.337 24.4113 12.5867C19.2415 15.7519 14.3551 19.3582 9.8066 23.3652C7.00476 25.8812 6.2341 29.8944 7.8856 43.1888C8.11103 44.9838 9.2286 44.3392 9.12408 43.4312Z" fill="#001434"/>
<path d="M76.3455 37.7668C77.7495 37.9702 76.1415 34.0067 79.7643 35.6802C79.8427 35.7321 79.9312 35.7669 80.024 35.7822C80.1167 35.7976 80.2117 35.7931 80.3026 35.7692C80.3936 35.7454 80.4784 35.7025 80.5517 35.6436C80.6249 35.5846 80.6849 35.5109 80.7276 35.4271C81.3825 33.7321 77.9422 33.5225 76.8907 34.3096C75.7839 35.1429 74.7545 37.5351 76.3455 37.7668Z" fill="#001434"/>
<path d="M65.5172 31.265C66.5026 31.1328 66.4489 29.6113 68.8038 29.683C68.8969 29.6938 68.9911 29.6849 69.0806 29.6571C69.17 29.6292 69.2526 29.583 69.3231 29.5213C69.3936 29.4596 69.4504 29.3839 69.4899 29.299C69.5294 29.2141 69.5507 29.1218 69.5525 29.0282C69.2993 26.3851 62.6877 30.8136 65.5172 31.265Z" fill="#001434"/>
<path d="M74.3144 37.7773C75.3986 30.5549 64.8404 28.3695 64.0088 36.506C63.9206 39.0214 65.1704 42.3464 67.6479 41.2458C69.8441 39.8972 71.16 39.2418 73.1527 38.9225C73.4383 38.8689 73.7015 38.7313 73.9084 38.5273C74.1153 38.3233 74.2567 38.0621 74.3144 37.7773ZM66.91 40.0458C64.8732 39.4401 64.6585 34.3805 67.6089 33.0759C68.129 34.9499 68.8011 36.7782 69.6186 38.5429C68.6883 38.9926 67.784 39.4943 66.91 40.0458Z" fill="#001434"/>
<path d="M27.2026 71.8424C26.8726 71.7215 26.1184 71.435 25.711 71.3141C26.1291 70.9186 27.0376 70.0146 26.272 69.7886C25.3918 69.5242 25.155 69.9813 24.1527 70.8898C23.6301 70.7519 23.2448 70.6638 23.2064 70.6531C22.2097 70.4384 21.1724 71.583 23.0465 72.0622C22.4741 72.6074 21.1916 73.9945 22.7108 73.9668C23.5917 73.9504 23.9606 72.9594 24.5934 72.4639C25.3279 72.6334 25.9749 72.921 26.5975 73.0475C27.3568 73.0758 27.9348 72.0848 27.2026 71.8424Z" fill="#001434"/>
<path d="M32.1848 65.3356C32.5978 64.8344 30.6655 64.8271 29.9248 64.5209C30.3711 64.0305 31.7198 62.8468 30.8853 62.6157C30.6604 62.5667 30.4277 62.5675 30.2032 62.6179C29.9787 62.6684 29.768 62.7673 29.5857 62.9078C29.0134 63.4801 28.7603 63.6728 28.1823 64.1796C27.4444 64.1299 26.1946 63.8321 25.5833 64.4875C25.1878 64.9169 26.2613 65.5447 26.7229 65.4729C26.15 66.0012 24.0747 68.1098 25.8692 67.9888C27.0557 67.9064 27.7574 66.2272 28.5942 65.6876C29.592 65.7373 31.2107 66.5244 32.1848 65.3356Z" fill="#001434"/>
<path d="M15.1636 74.862C14.98 74.8582 14.8022 74.9265 14.6683 75.0521C14.5344 75.1777 14.4549 75.3507 14.447 75.5342C14.439 75.7176 14.5031 75.8969 14.6256 76.0337C14.7481 76.1705 14.9193 76.2538 15.1025 76.266C17.8224 76.3542 24.6375 77.6751 26.2449 78.6441C26.4115 78.7284 26.6046 78.7432 26.7821 78.6854C26.9595 78.6276 27.1069 78.5018 27.1918 78.3356C27.5879 76.0863 17.5247 75.1445 15.1636 74.862Z" fill="#001434"/>
<path d="M33.9408 62.4945C34.5742 62.4008 37.8958 59.2961 36.7042 58.7655C35.62 58.2751 34.7115 59.96 33.2577 61.5069C32.8345 61.9606 33.3351 62.5827 33.9408 62.4945Z" fill="#001434"/>
<path d="M35.9669 55.8887C31.8713 55.8944 30.7537 56.5549 13.8189 72.8274C12.0957 74.4902 11.4787 76.0214 12.0737 77.3475C13.7732 81.1329 23.4302 81.1895 26.2105 81.1516C31.8391 81.0719 35.2505 76.6649 41.4486 68.8538C43.1769 66.2605 48.6162 61.4602 47.2398 58.5708C46.3437 56.6758 43.0735 55.8995 35.9669 55.8887ZM43.8001 63.662C38.4496 70.1855 31.7221 80.2979 26.1676 79.7419C22.1934 79.8736 14.3653 79.1419 13.3743 76.8039C12.9833 75.8734 13.9359 74.6846 14.8004 73.8478C31.9978 57.2933 32.6747 57.2888 35.9669 57.2996C44.7691 57.5453 48.8377 57.7109 43.8001 63.662Z" fill="#001434"/>
<path d="M26.7626 39.8885C26.0247 40.4445 24.1529 41.2264 24.5715 42.531C24.8631 43.4503 26.614 41.892 27.4344 41.0886C28.0508 40.4139 27.6378 39.2195 26.7626 39.8885Z" fill="#001434"/>
<path d="M41.4494 61.4718C41.8183 60.9819 43.0517 59.7819 42.0217 59.6768C40.8053 59.5502 40.3702 60.822 39.7617 61.3119C38.925 61.3232 37.8074 60.8107 37.1961 61.8074C36.8384 62.3961 38.143 62.6385 38.6882 62.6328C36.943 64.7911 35.4785 66.6737 33.6677 68.7767C32.5885 68.6224 31.0308 68.4461 30.1279 68.3032C29.945 68.2843 29.7614 68.3333 29.6122 68.4409C29.463 68.5485 29.3586 68.7072 29.3188 68.8868C29.1369 69.4761 30.6748 69.6631 32.5501 70.0485C32.2585 70.8395 28.5312 73.7588 30.1059 73.8633C31.6416 73.9679 31.3223 73.4283 34.2236 70.2796C34.8441 70.4143 35.484 70.4348 36.1118 70.34C36.8989 70.2084 37.6645 69.8061 35.3028 69.0241C37.0865 66.9218 38.5673 65.0002 40.3725 62.7871C41.333 62.6882 43.219 62.969 43.6495 62.2424C44.0919 61.4876 42.1929 61.6469 41.4494 61.4718Z" fill="#001434"/>
<path d="M31.579 25.7383C32.3609 20.4533 33.1429 20.0623 32.0581 20.0075C30.632 19.9357 30.7258 24.2021 30.3021 24.9123C29.9562 24.4884 29.645 24.0374 29.3715 23.5636C29.2747 23.4077 29.1208 23.2957 28.9427 23.2514C28.7646 23.2072 28.5762 23.2342 28.4177 23.3268C28.2592 23.4193 28.143 23.5701 28.094 23.7469C28.0449 23.9238 28.0668 24.1129 28.1551 24.2738C29.6907 26.8338 31.2931 27.6316 31.579 25.7383Z" fill="#001434"/>
<path d="M43.8936 47.8549C44.8242 47.9147 44.9671 46.8034 44.0479 46.4989C42.1212 45.8598 37.1718 46.2288 35.8452 49.3611C35.2175 50.842 35.3062 52.3506 36.2198 53.1043C36.5063 53.4998 43.3247 55.1739 43.3817 53.6218C43.3917 53.4354 43.3281 53.2525 43.2045 53.1125C43.081 52.9725 42.9075 52.8865 42.7213 52.8732C40.3703 52.7246 37.8436 52.3393 37.4916 51.9155C35.961 50.0753 37.9651 47.4825 43.8936 47.8549Z" fill="#001434"/>
<path d="M23.7127 25.8204C22.733 26.4752 21.2408 26.9984 21.8081 27.8295C22.3307 28.5945 23.6573 27.2131 25.4303 26.3102C26.245 25.8978 25.5625 24.5932 23.7127 25.8204Z" fill="#001434"/>
<path d="M24.7148 28.6168C23.9713 29.1253 22.248 29.4812 22.639 30.7638C22.826 31.3802 23.6244 31.0463 24.1419 30.6649C24.5493 30.3733 25.0335 30.0705 25.3583 29.8665C27.0098 28.8258 25.9036 27.8077 24.7148 28.6168Z" fill="#001434"/>
</svg>
