<svg width="256" height="256" viewBox="0 0 256 256" fill="none" xmlns="http://www.w3.org/2000/svg">
<path d="M129.752 134.966L130.648 120.374C130.648 120.374 127.576 121.91 119.512 122.422C111.576 122.934 108.632 120.502 108.632 120.502C108.632 120.502 109.4 138.294 111.064 143.414C112.728 148.534 116.952 149.686 120.792 150.07C120.92 144.566 126.68 143.798 126.68 143.798C126.68 136.63 129.752 134.966 129.752 134.966ZM136.312 144.771C138.872 143.235 134.264 139.651 132.728 140.931C131.448 142.208 134.392 145.92 136.312 144.768V144.771ZM153.976 150.019C156.792 150.531 159.096 147.075 158.072 146.435C155.256 144.64 151.672 149.504 153.976 150.016V150.019ZM148.344 143.619C150.904 142.851 147.064 137.987 145.4 139.011C143.736 140.035 145.912 144.384 148.344 143.616V143.619ZM158.84 140.291C156.664 140.803 160.12 144.515 162.296 142.723C164.088 141.184 161.016 139.904 158.84 140.288V140.291ZM149.752 134.915C148.088 136.579 150.776 137.859 152.952 137.603C156.152 137.216 151.672 132.992 149.752 134.912V134.915ZM147.712 47.2081C148.2 45.8601 149.094 44.6971 150.272 43.8801C164.864 39.9121 211.968 49.2561 233.216 62.0561C233.216 62.0561 234.496 62.9521 234.496 58.2161C226.56 43.7521 205.44 27.2401 184.704 24.4241C182.912 24.1681 178.944 25.7041 177.408 26.7281C174.457 28.7549 171.788 31.1654 169.472 33.8961C169.472 33.8961 139.776 29.0321 138.496 36.0721C137.344 44.1361 147.712 47.2081 147.712 47.2081ZM244.421 129.163C242.245 117.515 238.661 100.235 224.965 91.5307C219.589 96.9067 208.965 102.923 183.493 101.259C157.893 99.5947 148.677 82.1866 148.677 82.1866C148.677 82.1866 139.205 86.7946 132.933 100.875C135.877 102.411 136.261 102.539 137.285 104.715C137.285 104.715 139.333 108.299 138.821 110.987C137.797 116.875 135.109 118.155 135.109 118.155L133.573 132.107C133.573 132.107 141.125 130.187 142.917 130.059C142.661 124.939 143.173 115.211 143.685 114.315C144.709 112.651 145.093 114.315 146.501 116.107C146.245 112.779 145.349 106.251 146.245 104.971C147.141 103.563 151.237 104.331 152.261 105.483L149.445 104.715C149.445 104.715 150.469 121.099 150.469 121.227L151.621 121.867L153.797 117.387L152.133 105.355L152.261 105.483C153.029 106.635 153.669 109.195 154.821 109.451C156.101 109.707 156.101 102.795 157.765 102.027C159.086 101.744 160.459 101.833 161.733 102.283L159.429 113.163L163.269 112.395L164.933 103.691L165.189 103.947C165.701 105.099 164.165 111.499 164.165 111.499L166.341 112.139C166.341 112.139 169.029 105.099 170.437 104.331C171.333 103.819 173.253 104.459 174.789 105.355L166.341 121.227L164.933 126.091L169.285 123.915C169.285 123.915 176.709 108.427 176.965 107.915C176.795 109.167 176.311 110.356 175.557 111.371C175.557 111.371 180.933 112.011 181.445 113.163L178.629 112.395L175.173 120.075C175.173 120.075 179.269 119.819 179.269 119.691C179.269 119.657 179.283 119.624 179.307 119.6C179.331 119.576 179.363 119.563 179.397 119.563C179.909 119.947 180.293 119.947 180.421 120.587C180.933 122.379 180.293 129.163 180.293 129.163C180.293 129.163 198.853 136.203 204.485 142.603C204.485 142.603 205.253 141.451 204.357 135.435C214.984 130.955 231.368 127.627 244.424 129.163H244.421ZM141.304 148.736C141.304 150.784 148.216 151.04 147.064 148.48C146.04 145.792 141.304 146.56 141.304 148.736ZM137.592 134.528C135.544 135.68 140.152 138.368 141.56 137.856C142.968 137.344 140.664 132.736 137.592 134.528ZM168.952 113.664L166.008 112C166.008 112 161.912 126.08 161.912 126.336H165.368L168.952 113.664ZM166.578 147.072C164.402 150.272 159.922 154.112 150.45 155.008C140.722 156.032 131.762 152.064 128.818 147.2C125.49 149.76 127.922 154.368 129.842 156.16C135.09 161.152 142.77 162.304 150.962 161.664C161.202 160.896 165.682 157.312 167.474 155.392C170.802 152.064 170.546 146.304 166.578 147.072Z" fill="#3D9CFB"/>
<path d="M19.2315 115.878C19.0365 115.807 18.8289 115.776 18.6215 115.788C18.4141 115.8 18.2113 115.853 18.0255 115.946C17.8397 116.039 17.6749 116.169 17.5411 116.328C17.4073 116.487 17.3074 116.671 17.2475 116.87C16.5907 118.672 16.3828 120.607 16.642 122.507C16.9012 124.407 17.6195 126.215 18.7349 127.775C19.9739 129.261 22.4533 127.279 21.0901 125.792C18.2395 122.57 21.7096 116.746 19.2315 115.878Z" fill="#001434"/>
<path d="M59.1365 170.401C59.0863 171.397 58.8157 172.369 58.3442 173.248C57.8727 174.126 57.2121 174.889 56.4101 175.482C56.1413 175.672 55.9394 175.943 55.833 176.255C55.7265 176.567 55.7209 176.904 55.8169 177.22C55.9129 177.535 56.1056 177.812 56.3678 178.012C56.63 178.211 56.9484 178.324 57.2779 178.332C58.8894 178.204 60.0043 176.474 60.748 175.359C63.4744 177.093 70.2891 172.879 72.8913 169.782C74.3787 168.047 72.5189 165.445 71.0328 167.304C69.9404 168.711 68.5772 169.886 67.0237 170.759C65.4701 171.631 63.7576 172.184 61.987 172.384C62.8484 169.162 59.628 167.18 59.1365 170.401Z" fill="#001434"/>
<path d="M32.613 110.426C30.135 109.436 27.9039 113.401 27.4086 117.491C26.9119 121.331 27.1602 122.942 27.9039 124.801C28.0025 125.162 28.2407 125.47 28.5661 125.656C28.8915 125.842 29.2774 125.891 29.639 125.792C30.0005 125.694 30.3081 125.455 30.494 125.13C30.6799 124.805 30.7289 124.419 30.6303 124.057C30.6303 123.929 29.0188 116.499 32.613 112.657C33.2326 112.038 33.4796 110.799 32.613 110.426Z" fill="#001434"/>
<path d="M59.2552 152.31C70.532 152.31 62.6011 159.621 66.1941 161.728C68.6722 163.214 70.6549 156.027 68.0539 151.813C66.5653 149.335 58.3874 147.725 57.7679 150.823C57.5208 151.566 58.3874 152.31 59.2552 152.31Z" fill="#001434"/>
<path d="M13.2829 165.074C12.8888 165.108 12.5242 165.296 12.2687 165.598C12.0133 165.9 11.8878 166.291 11.9197 166.685C12.4151 179.448 22.4528 181.184 23.6957 191.22C23.6957 192.088 24.4394 192.956 25.1831 192.832C28.7773 192.088 24.5635 183.413 21.4711 180.316C17.587 176.752 15.2333 171.822 14.9034 166.561C14.8972 166.356 14.8501 166.155 14.7648 165.968C14.6795 165.782 14.5577 165.614 14.4067 165.476C14.2557 165.337 14.0785 165.23 13.8855 165.161C13.6925 165.092 13.4876 165.062 13.2829 165.074Z" fill="#001434"/>
<path d="M54.1752 153.302C44.5099 142.769 27.285 160.737 36.7019 170.526C46.2443 180.562 65.5749 165.57 54.1752 153.302ZM49.7131 168.543C39.0571 175.855 31.6216 161.604 42.6501 154.417C44.7789 159.177 47.3955 163.704 50.4581 167.924C50.2418 168.166 49.9907 168.375 49.7131 168.543Z" fill="#001434"/>
<path d="M173.629 71.8889C178.958 71.2694 169.044 63.9529 178.958 62.3465C179.826 62.2185 180.568 61.3558 180.197 60.6121C179.205 57.8857 173.01 59.6214 171.151 64.3241C170.16 67.3039 171.399 72.1359 173.629 71.8889Z" fill="#001434"/>
<path d="M178.462 89.4855C188.252 90.1051 192.837 80.5626 189.614 77.7095C188.252 76.5934 184.535 78.329 176.231 77.4612C171.399 76.9658 169.416 76.345 168.295 78.0807C166.442 80.811 171.52 89.1131 178.462 89.4855ZM173.877 79.6961C177.747 80.088 181.642 80.1706 185.525 79.9431C187.013 79.8151 186.145 83.1649 184.906 83.5374C180.938 84.7764 172.019 85.7671 171.399 80.4385C171.648 79.4478 173.134 79.5719 173.877 79.6961Z" fill="#001434"/>
<path d="M46.7392 201.999C65.8227 199.645 78.0902 189.855 83.4188 178.575C89.401 181.774 94.5476 186.334 98.4435 191.887C102.339 197.44 104.875 203.832 105.847 210.545C95.8105 221.821 86.0211 216.616 73.1328 209.678C71.3984 208.687 70.7788 211.783 72.6374 212.651C73.3811 213.023 75.7363 214.51 79.5776 216.363C69.2915 226.773 67.6812 239.787 68.7961 245.98C69.1686 248.335 71.7708 247.714 71.7708 246.108C71.7708 243.134 70.7788 229.255 82.6752 217.854C95.6864 225.662 106.219 215.5 114.026 206.95C118.611 202.613 113.655 195.43 117.866 191.832C119.105 190.841 122.575 190.965 125.425 195.178C125.591 195.436 125.807 195.657 126.061 195.829C126.315 196.001 126.602 196.119 126.903 196.177C127.204 196.235 127.514 196.231 127.814 196.166C128.113 196.101 128.397 195.975 128.646 195.797C133.355 192.328 139.675 188.486 148.23 193.566C146.372 195.549 143.397 198.648 142.035 199.763C140.919 200.63 141.167 202.365 142.531 202.365C144.389 201.87 147.611 198.525 150.708 195.426C153.273 197.559 155.345 200.223 156.781 203.234C154.942 205.366 152.863 207.279 150.586 208.934C149.345 209.802 149.965 211.288 151.452 211.288C153.187 210.917 155.171 209.305 158.144 206.456C162.976 221.201 153.064 233.464 137.449 244.622C136.707 245.117 135.839 246.109 136.211 246.853C136.707 247.595 137.697 248.092 139.309 246.981C152.691 237.686 158.637 230.746 161.117 222.693C162.796 216.117 162.363 209.18 159.878 202.865C154.798 188.986 139.309 183.164 127.537 192.953C121.341 184.278 111.304 188.244 112.915 198.776C113.782 203.238 111.428 205.345 108.577 208.07C107.32 201.229 104.51 194.767 100.364 189.181C96.218 183.596 90.8462 179.036 84.6617 175.852C88.8742 163.212 85.4054 152.184 78.5894 139.792C85.6524 136.694 85.4054 118.106 79.2089 115.628C76.9792 114.762 76.2355 119.347 73.6332 118.974C72.1459 118.846 70.6585 116.991 69.0483 114.389C62.3564 103.237 57.7715 98.2804 47.6108 95.8023C36.0908 92.9518 22.5792 95.4311 10.8083 103.114C9.0726 104.229 10.8083 106.826 12.4185 105.716C22.6244 98.9369 35.1036 96.4854 47.1155 98.8999C64.5875 102.612 67.1897 130.746 78.5894 119.594C81.1916 122.196 82.3014 134.092 76.855 137.19C67.9283 120.711 51.4483 112.161 40.5427 116.991C42.2147 113.606 44.6295 110.641 47.607 108.318C49.0944 106.831 46.8633 104.848 44.2611 107.078C40.1715 110.424 34.3475 118.854 34.72 128.392C20.7168 133.721 16.1318 148.467 21.8316 162.964C26.5408 177.712 43.7657 184.899 43.52 200.761C42.6521 222.818 26.7916 232.73 19.3561 236.078C18.225 236.593 17.067 237.048 15.8873 237.439C14.2758 238.059 15.639 240.537 18.1171 239.919C25.7971 238.059 47.1116 222.57 46.7392 201.999ZM73.3811 145.99C66.5651 148.716 60.9894 138.554 65.5731 133.722C67.8679 138 70.4778 142.1 73.3811 145.99ZM41.5347 185.146C34.8428 174.986 24.311 168.171 23.1948 154.042C22.9478 149.954 22.5753 145.864 24.8064 141.155C26.0156 138.735 27.705 136.585 29.7715 134.839C31.8381 133.092 34.2386 131.784 36.8268 130.995C37.1344 130.878 37.4024 130.676 37.5998 130.413C37.7972 130.149 37.9157 129.835 37.9417 129.507C37.8351 126.615 38.2119 123.725 39.0566 120.957C42.7686 118.479 53.9264 118.23 58.8838 121.948C54.67 123.311 52.6873 126.905 55.7849 127.153C57.3964 127.281 59.0067 124.798 62.3526 124.303C63.8479 125.571 65.2553 126.94 66.5651 128.399C53.3068 136.454 66.4371 157.148 78.4614 146.614C90.1094 170.038 80.1971 193.578 46.6163 199.03C46.0294 194.069 44.2891 189.314 41.5347 185.146Z" fill="#001434"/>
<path d="M34.8423 149.088C38.3124 149.583 36.7009 144.876 43.0215 142.025C43.2128 141.94 43.3847 141.817 43.5268 141.664C43.6689 141.51 43.7781 141.329 43.8477 141.132C43.9173 140.935 43.9459 140.725 43.9317 140.517C43.9175 140.308 43.8609 140.104 43.7652 139.918C40.5421 136.201 31.1252 148.593 34.8423 149.088Z" fill="#001434"/>
<path d="M104.608 101.009C102.977 101.697 101.594 102.864 100.64 104.355C81.1878 91.3434 66.0697 86.1441 44.7564 72.2599C43.1462 71.145 40.5426 72.5069 42.2783 73.6231C63.7158 87.6263 79.8246 94.0698 99.5276 107.204C99.2087 108.759 99.209 110.363 99.5285 111.918C99.848 113.472 100.48 114.946 101.386 116.25C94.6956 118.976 90.606 126.783 93.3324 133.475C89.2428 137.315 86.7647 143.016 89.7382 148.22C93.8278 155.16 136.202 182.422 147.112 185.768C156.404 188.617 170.035 182.793 173.505 178.952C186.394 201.133 215.762 188.741 231.745 175.24C239.057 178.462 247.233 184.534 250.209 184.534C255.414 184.406 236.95 174.991 234.347 173.014C243.269 165.078 249.707 155.418 250.829 146.867C252.315 129.644 249.217 111.675 239.053 96.681C244.628 94.9466 246.733 88.873 243.389 81.4401C247.101 75.8644 243.142 70.0391 237.812 64.3393C237.959 64.0605 238.083 63.7708 238.185 63.4727C251.072 66.8173 244.504 53.1866 242.399 47.2385C249.957 38.5652 247.355 36.5825 236.698 33.1124C240.168 26.5447 239.672 23.8196 236.202 21.4644C232.732 19.2346 224.554 20.7207 221.952 19.3575C219.474 18.1185 218.358 10.8084 214.641 10.0634C208.817 8.70151 200.639 16.3841 196.425 8.82567C193.698 3.99239 186.511 2.25799 182.794 8.32903C180.563 12.041 177.218 12.169 173.997 9.81639C166.685 4.86023 165.818 12.1703 162.844 16.6311C156.16 18.7277 152.192 20.8346 156.288 29.0125C155.638 29.5579 155.018 30.1372 154.429 30.7482C145.755 30.1287 134.107 27.6506 131.505 35.0849C130.388 38.3066 131.377 44.7501 145.384 50.8225C143.648 57.8855 143.028 69.6577 146.251 78.7034C139.187 80.9332 132 88.1217 127.415 94.9364C124.868 94.2804 122.226 94.0708 119.607 94.3169C118.487 81.1815 112.663 78.3361 103.369 72.6324C98.0403 69.4106 94.9427 79.0746 98.9081 81.801C107.707 87.6263 108.822 87.5009 109.937 96.5479C107.738 97.4422 105.875 99.002 104.608 101.009ZM96.3058 125.173C97.5443 122.405 99.8104 120.227 102.625 119.1C102.874 121.207 103.369 123.809 103.864 126.534C101.011 127.847 98.3106 129.467 95.8105 131.368C95.2977 129.304 95.4716 127.129 96.3058 125.173ZM172.266 175.977C169.788 178.208 159.999 186.015 147.855 182.793C136.454 179.82 95.438 152.558 92.4646 146.61C88.6246 139.05 96.0575 134.218 104.485 129.509C105.847 139.546 105.6 150.822 120.593 150.822C120.965 155.16 123.567 156.895 125.922 158.758C122.452 179.329 169.788 180.32 169.293 161.733C172.762 160.246 173.878 159.378 174.62 157.271C175.019 156.157 175.103 154.954 174.863 153.796C174.623 152.637 174.067 151.567 173.258 150.703C179.578 149.466 178.09 147.978 181.809 130.753C190.73 134.721 199.528 139.304 201.265 141.533C199.26 144.264 196.784 146.614 193.953 148.474C192.838 149.217 191.722 150.332 190.359 150.085C184.907 149.217 179.951 149.837 177.596 153.925C176.357 156.156 176.233 159.007 178.34 162.476C172.019 167.552 171.52 172.632 172.266 175.977ZM168.797 126.163C169.417 127.651 168.797 135.829 170.161 136.201C172.762 136.945 172.514 127.898 172.019 123.809C174.746 122.446 177.843 121.207 179.578 121.331C180.073 124.924 176.48 144.255 175.488 146.486C175.117 147.354 172.639 147.725 170.532 147.973C170.36 147.409 170.073 146.886 169.689 146.438C169.305 145.99 168.832 145.627 168.301 145.371C170.035 134.714 157.396 128.517 145.377 128.023C144.634 123.19 144.634 117.366 145.377 115.878C150.582 122.941 160.128 132.608 168.797 126.163ZM148.48 106.213C148.851 105.594 152.073 105.841 152.32 106.213C152.939 110.426 153.807 116.746 152.32 119.349C151.205 117.985 150.089 116.622 149.098 115.381C148.739 112.337 148.532 109.277 148.48 106.213ZM162.73 110.922C158.269 110.426 158.394 118.73 156.287 123.313C155.791 122.941 155.172 122.446 154.676 122.075C155.667 118.235 158.889 106.089 159.384 103.734C166.566 102.991 163.469 106.586 162.725 110.922H162.73ZM166.199 114.762C165.332 116.992 163.721 122.816 163.103 125.047C161.811 125.153 160.51 125.027 159.263 124.675C160.006 122.074 161.494 116.373 161.865 114.143C162.353 113.649 165.823 114.267 166.194 114.764L166.199 114.762ZM168.554 112.655C169.669 109.929 171.032 107.699 171.9 105.839C172.395 105.468 175.868 107.203 175.74 108.07C173.386 112.038 170.783 121.577 166.57 123.932C167.68 119.471 170.035 114.886 168.549 112.657L168.554 112.655ZM176.732 113.151C177.866 113.363 178.984 113.653 180.078 114.019C179.404 115.424 178.824 116.873 178.344 118.355C176.762 118.535 175.216 118.953 173.759 119.594C174.746 117.613 175.86 115.135 176.727 113.152L176.732 113.151ZM163.226 161.603C158.394 166.063 150.338 166.186 143.898 164.452C140.058 163.337 136.834 165.568 133.116 163.213C130.515 161.727 130.39 159.123 128.655 157.142C125.309 153.672 119.982 150.202 127.168 145.366C127.281 145.759 127.448 146.134 127.665 146.481C120.6 166.555 165.459 167.174 170.417 152.181C175.983 157.761 166.442 158.753 163.22 161.604L163.226 161.603ZM165.952 163.585C164.34 174.365 133.857 174.614 130.264 165.071C135.345 169.656 140.302 166.559 143.398 167.549C152.936 170.65 160.494 168.667 165.947 163.584L165.952 163.585ZM129.521 149.334C138.566 159.123 159.755 157.885 166.82 148.219C170.903 162.346 128.401 163.712 129.515 149.335L129.521 149.334ZM161.367 149.334C155.791 155.159 128.033 154.664 129.892 140.661C133.108 122.446 178.71 134.589 161.362 149.335L161.367 149.334ZM133.486 131.242C129.396 133.845 126.546 137.686 126.546 142.271C125.268 142.742 124.109 143.484 123.146 144.447C122.183 145.41 121.441 146.57 120.97 147.848C115.519 147.72 110.066 145.493 109.322 141.651C107.959 134.588 107.091 127.525 105.976 120.462C113.163 125.418 126.918 125.171 134.477 121.206C134.349 123.685 133.852 127.279 133.481 131.244L133.486 131.242ZM230.76 172.383C218.74 182.172 204.614 189.979 189.372 187.625C191.726 186.509 194.33 185.023 194.701 184.774C196.435 183.784 194.948 182.049 192.718 182.792C190.363 183.66 186.646 185.518 184.782 186.013C182.553 184.945 180.57 183.427 178.958 181.553C181.931 180.561 185.65 178.95 186.145 178.702C188.004 177.836 187.384 175.605 185.402 176.101C183.172 176.719 179.329 178.207 176.975 178.826C172.514 173.375 176.48 166.312 183.295 162.593C188.747 159.62 185.402 157.637 180.817 160.486C179.95 158.752 179.205 156.274 181.56 154.167C186.394 150.327 190.482 155.53 194.82 151.812C204.856 143.263 206.095 142.89 205.724 135.951C222.948 129.137 240.173 127.649 247.607 131.983C249.838 148.717 245.129 159.992 230.754 172.384L230.76 172.383ZM241.664 77.4644C241.792 79.0746 239.186 80.0666 240.054 81.801C243.524 87.8733 241.541 95.433 236.086 93.0778C234.281 91.1498 232.289 89.4064 230.139 87.8733C235.095 81.0586 234.722 74.8621 232.988 72.0116C230.51 67.922 225.925 68.4186 223.074 66.9313C220.845 65.8164 219.362 63.7095 219.977 57.6372C230.016 61.4797 240.544 67.4266 241.664 77.4644ZM159.013 67.5508C167.81 67.0554 171.281 60.2394 168.554 53.5489C166.323 48.2202 154.056 45.9892 149.346 48.0961C149.626 47.192 150.001 46.3198 150.463 45.4938C155.791 43.0157 166.323 44.5031 170.413 48.4685C172.024 50.0788 173.263 47.9732 172.644 46.61C172.245 45.7593 171.535 45.0937 170.661 44.7501C176.327 45.3887 181.953 46.3404 187.514 47.6007C184.415 47.9732 182.68 50.5741 185.655 51.4407C186.522 51.4407 190.735 49.2097 196.188 49.705C203.231 51.5107 210.144 53.7878 216.882 56.521C215.767 71.1437 221.59 68.9127 228.282 72.265C228.895 72.5563 229.416 73.0111 229.788 73.5795C230.16 74.148 230.368 74.8079 230.388 75.4868C231.503 95.9335 197.798 104.855 172.276 98.1633C169.681 97.3765 167.154 96.3822 164.718 95.1898C153.198 89.8612 146.378 79.4458 146.998 64.3341C149.714 66.8071 154.918 67.7991 159.008 67.5508H159.013ZM155.419 50.4513C160.004 50.8225 165.084 53.0522 165.828 54.7879C168.059 61.2314 163.598 66.0634 156.658 64.329C156.484 59.6847 156.069 55.0525 155.414 50.4513H155.419ZM235.593 61.2314C225.928 51.442 201.515 42.8916 193.585 40.1652C182.098 36.3309 170.333 33.3897 158.394 31.3677C173.387 15.3831 217.748 33.3505 235.593 57.0177C236.083 57.7613 235.959 59.6212 235.588 61.2314H235.593ZM157.897 22.1914C159.384 20.2087 163.598 19.9617 164.713 19.0938C166.323 17.8548 168.425 11.7825 169.669 11.4138C172.395 10.5473 175.617 15.6276 179.583 14.6369C184.168 14.2644 185.035 8.31623 188.381 7.57255C193.833 6.33351 194.577 14.3885 200.276 15.5085C204.737 16.3764 211.058 11.2961 214.404 13.2788C215.395 13.7741 216.138 15.7569 217.005 17.2468C218.368 19.9732 219.112 21.3351 220.973 22.2029C224.567 23.8145 232.621 21.8317 235.223 24.5569C239.063 28.6529 228.532 34.2221 238.074 36.8257C249.35 39.7991 238.693 41.7818 239.437 47.6058C239.932 51.2001 247.373 61.8561 239.066 60.3687C231.878 32.9844 170.291 13.033 158.891 27.1591C157.645 24.5517 157.645 22.569 157.892 22.1978L157.897 22.1914ZM134.23 36.4417C135.469 26.281 207.958 44.6196 219.979 54.4103C207.092 48.9575 150.463 30.9863 146.251 47.9668C137.693 44.0065 133.729 40.4135 134.225 36.4481L134.23 36.4417ZM147.241 81.7946C159.26 111.163 212.173 107.57 228.034 90.345C239.186 97.6564 245.258 113.641 247.234 128.388C238.313 124.669 221.956 126.405 205.35 132.849C204.731 129.009 203.987 124.669 203.121 123.555C201.882 121.943 200.643 124.422 201.138 126.281C202.076 130.441 202.698 134.667 202.996 138.921C199.156 135.451 190.234 130.985 182.178 127.401C183.045 119.721 182.427 119.465 181.435 118.728C183.666 114.143 184.781 111.663 177.966 110.673C180.567 106.705 174.744 102.246 171.397 102.618C168.052 103.237 167.928 107.946 165.946 110.554C166.193 108.324 168.919 103.119 166.074 102.127C159.133 99.6493 156.532 100.393 155.789 107.58C156.036 104.234 154.674 103.366 149.468 103.366C143.025 103.366 145.875 108.2 145.628 112.536C139.928 112.041 141.66 123.813 142.159 128.024C140.296 128.272 138.467 128.729 136.706 129.386C137.202 124.306 137.697 120.092 137.821 118.606C145.757 111.046 139.556 100.513 130.263 95.9297C134.596 90.1044 141.163 83.6596 147.236 81.801L147.241 81.7946ZM108.457 85.3889C104.988 82.29 98.2963 79.4407 100.031 76.0948C100.403 75.4753 100.898 74.8557 101.642 75.2269C105.979 77.2097 114.778 82.5383 116.264 89.2301C117.206 93.3743 117.623 97.6206 117.504 101.869C117.376 103.356 115.149 103.976 113.664 102.49C112.415 101.256 113.158 89.7281 108.449 85.3953L108.457 85.3889ZM107.218 102.861C107.859 101.456 109.011 100.349 110.44 99.7633C111.307 105.958 111.927 106.95 117.38 106.454C120.973 106.083 120.229 100.878 119.982 97.6564C127.168 97.4081 135.726 99.7633 132.869 107.073C129.144 114.267 104.732 113.4 107.21 102.867L107.218 102.861ZM136.576 105.097C148.096 123.933 101.384 127.898 102.376 108.32C102.588 107.172 103.102 106.101 103.864 105.216C103.617 117.366 136.951 118.108 136.576 105.097Z" fill="#001434"/>
<path d="M199.652 74.369C208.822 74.369 211.673 69.1646 211.053 63.8359C210.755 61.797 209.922 59.8737 208.637 58.2625C207.353 56.6514 205.663 55.4103 203.742 54.666C199.656 52.6485 194.948 52.2933 190.606 53.6753C188.737 54.3534 187.13 55.6065 186.017 57.2546C184.903 58.9028 184.341 60.8613 184.41 62.849C184.41 69.1633 190.358 74.369 199.652 74.369ZM207.332 60.8612C209.933 67.8014 204.977 72.5092 197.543 70.899C197.502 66.0007 197.087 61.1127 196.302 56.2775C201.14 56.7716 206.72 59.1255 207.336 60.8599L207.332 60.8612Z" fill="#001434"/>
</svg>
