<svg width="268" height="268" viewBox="0 0 268 268" fill="none" xmlns="http://www.w3.org/2000/svg">
<path d="M143.565 142.333C146.794 134.829 156.107 110.522 142.533 106.904C132.965 104.478 129.602 116.538 129.602 116.538C129.602 116.538 112.41 108.002 108.524 120.424C103.164 137.362 131.411 142.923 140.067 144.343C140.792 144.455 141.533 144.317 142.169 143.951C142.804 143.586 143.297 143.015 143.565 142.333Z" fill="#3D9CFB"/>
<path d="M201.493 33.07C199.295 35.2676 202.913 38.899 204.977 36.4334C207.309 34.2358 203.302 30.7786 201.493 33.07Z" fill="#3D9CFB"/>
<path d="M21.1152 28.8083C23.956 28.6743 23.5674 24.2121 20.8606 24.4131C18.1538 24.6141 18.395 29.1969 21.1152 28.8083Z" fill="#3D9CFB"/>
<path d="M217.01 28.9422C216.779 29.0434 216.585 29.2109 216.45 29.4233C216.315 29.6357 216.247 29.8834 216.254 30.1348C216.259 30.3015 216.297 30.4655 216.367 30.6172C218.202 34.932 213.78 40.5734 208.862 39.153C207.187 38.7644 206.665 41.3506 208.219 41.6052C219.596 44.3254 222.048 28.165 217.01 28.9422Z" fill="#3D9CFB"/>
<path d="M90.1656 18.33C79.4456 15.8778 75.6802 29.05 75.6802 29.05C46.9774 14.31 33.0146 54.0142 87.7402 61.6388C88.4902 61.7698 89.2625 61.6506 89.9381 61.2995C90.6137 60.9484 91.1551 60.3849 91.4788 59.6958C95.4586 51.1734 107.746 22.216 90.1656 18.33Z" fill="#3D9CFB"/>
<path d="M198.129 22.215C192.059 28.2852 192.059 39.9298 198.772 45.2228C209.894 55.313 227.609 45.7454 226.711 31.394C226.055 17.8198 206.92 12.2588 198.129 22.215ZM219.877 42.516C207.59 55.313 187.128 37.4508 199.965 24.024C212.333 11.0796 233.17 28.6738 219.877 42.516Z" fill="#3D9CFB"/>
<path d="M49.4294 135.875C43.3592 135.741 43.2252 142.079 43.2252 142.079C26.8102 139.881 27.1452 161.08 54.8698 157.073C54.8698 157.073 59.5196 135.995 49.4294 135.875Z" fill="#3D9CFB"/>
<path d="M34.6893 41.86C45.6773 26.7582 23.8353 10.1824 11.4135 23.8906C-0.606259 39.0192 22.4149 56.868 34.6893 41.86ZM15.9293 42.6372C2.93134 33.2572 16.4519 14.8456 29.8921 23.502C42.8365 33.3376 28.4315 51.6956 15.9427 42.6372H15.9293Z" fill="#3D9CFB"/>
<path d="M30.8171 31.9171C28.8741 30.0947 25.8993 33.8467 28.3515 35.4011C30.5491 37.3441 33.1353 33.4581 30.8171 31.9171Z" fill="#3D9CFB"/>
<path d="M170.593 193.668L179.678 208.998C179.678 208.998 182.653 191.149 192.354 186.365C202.056 181.581 208.26 187.705 208.26 187.705C212.458 180.22 214.806 171.84 215.107 163.264C215.63 150.467 199.59 126.293 195.972 118.91L174.117 132.31C185.721 151.257 199.939 176.208 170.593 193.668Z" fill="#3D9CFB"/>
<path d="M43.0917 107.426C68.5517 114.274 77.4895 74.7036 51.6275 69.156C23.0587 63.327 18.8779 102.375 43.0917 107.426Z" fill="#3D9CFB"/>
<path d="M210.806 28.0988C213.901 27.7102 213.258 23.0604 210.149 23.181C207.188 23.6366 207.563 28.4204 210.806 28.0988Z" fill="#3D9CFB"/>
<path d="M25.2562 38.3771C24.3314 38.7658 23.3194 38.8997 22.3253 38.7649C21.3313 38.6301 20.3915 38.2315 19.6037 37.6105C18.8158 36.9895 18.2087 36.1689 17.8454 35.2338C17.4821 34.2988 17.3759 33.2835 17.5378 32.2935C17.5172 32.015 17.4101 31.7498 17.2314 31.5351C17.0528 31.3205 16.8115 31.167 16.5414 31.0961C16.2712 31.0252 15.9857 31.0406 15.7247 31.1399C15.4636 31.2393 15.2402 31.4177 15.0856 31.6503C13.424 35.8579 19.2128 44.3267 26.4622 40.7087C27.8424 40.1593 26.8106 37.7339 25.2562 38.3771Z" fill="#3D9CFB"/>
<path d="M86.6689 83.6281C69.6911 92.4453 76.2437 104.425 90.5549 139.225C81.7645 142.977 71.5403 147.372 73.3493 155.653C75.5469 165.609 91.7207 193.173 103.352 210.084C108.913 218.378 117.703 223.926 128.758 226.418C144.41 260.039 150.48 262.237 164.067 261.071C174.024 260.173 197.299 250.726 210.74 243.356C269.445 211.29 269.472 211.531 246.558 162.031C242.739 153.79 222.438 110.696 218.632 102.294C223.537 102.16 224.314 102.16 224.836 101.128C225.949 99.2659 220.428 99.7885 215.912 99.7885C216.046 95.1387 216.555 80.0101 215.912 73.1627C220.95 73.0287 222.759 73.2833 223.148 72.2515C223.671 70.8311 221.607 70.8311 215.523 70.5765C213.085 60.5667 202.994 61.8799 201.172 69.4107C194.191 53.8935 186.432 40.8285 163.933 48.4665C151.324 52.3391 96.3705 78.5897 86.6689 83.6281ZM86.8029 144.531C90.6755 142.333 100.632 138.327 102.066 140.511C103.741 141.422 108.913 150.213 113.442 157.703C104.129 163.144 99.7339 166.762 84.8599 173.783C73.2153 151.486 74.0193 150.842 86.8029 144.531ZM156.898 67.3337C178.231 58.4227 179.531 53.3709 191.162 76.6467C186.767 85.4371 190.385 100.311 202.793 101.477C211.463 122.032 236.159 173.502 243.784 195.277C248.179 207.819 234.86 212.335 224.14 218.807C222.451 214.921 214.049 195.143 211.852 191.002C230.076 164.363 214.947 139.024 202.03 115.748C197.621 109.41 192.556 95.9561 185.856 94.5491C182.479 93.8389 173.796 97.9125 167.096 102.174C153.254 110.696 151.19 109.972 174.6 146.916C161.28 144.839 131.8 159.713 127.7 174.587C121.884 166.829 108.042 139.667 103.138 137.349C83.9889 94.2811 88.7191 97.6981 104.947 90.1539C107.921 88.7335 108.658 89.9127 109.864 91.8289C111.995 95.2325 115.157 96.3581 119.553 95.3263C125.368 93.9863 146.714 83.5611 152.396 80.3183C161.803 74.8377 153.388 68.7675 156.898 67.3337ZM155.478 226.512C161.816 225.092 168.798 223.283 174.358 220.174C176.163 219.138 177.706 217.702 178.867 215.976C180.029 214.25 180.779 212.28 181.059 210.218C183.002 197.153 187.651 189.528 195.155 186.942C197.62 186.02 200.33 185.993 202.811 186.868C205.293 187.743 207.388 189.462 208.73 191.726C212.75 199.35 217.52 211.826 221.661 220.429C213.62 224.958 189.594 238.921 164.041 246.157C162.258 242.15 156.496 229.353 155.465 226.512H155.478ZM160.516 246.425C150.815 246.545 147.465 233.748 143.579 227.665C146.48 227.634 149.376 227.414 152.248 227.008C154.687 233.628 157.783 239.564 160.503 246.425H160.516ZM151.203 185.388C151.98 188.362 154.567 192.503 157.287 196.51C146.942 198.198 136.075 193.923 131.425 183.579C124.028 162.541 171.464 144.839 177.843 151.767C187.504 162.273 188.187 175.311 179.183 185.267C174.787 178.674 171.933 172.591 169.481 173.113C168.57 173.234 168.449 174.534 168.958 175.311C168.958 175.431 173.876 183.069 176.851 187.585C172.293 191.711 166.759 194.607 160.771 196C157.93 191.86 154.446 185.388 153.146 183.19C151.713 180.738 150.547 182.935 151.19 185.388H151.203ZM180.295 149.449C177.709 145.429 174.935 141.168 171.384 135.486C185.534 128.505 189.072 124.404 199.953 118.548C211.718 139.881 226.069 163.546 209.909 187.974C197.621 175.914 181.769 187.465 178.874 204.657C177.065 201.548 174.479 197.287 172.804 194.312C189.983 184.222 194.257 164.309 180.281 149.449H180.295ZM171.102 103.54C180.161 97.9795 184.033 97.4703 185.588 97.5909C190.372 99.5339 194.646 110.401 198.385 115.694C185.588 122.81 184.422 125.396 169.682 132.766C164.51 124.096 159.605 115.346 160.114 112.666C159.471 110.522 166.064 106.515 171.102 103.54ZM127.793 183.19L111.888 162.38C113.054 161.603 114.219 160.959 115.117 160.437C118.783 166.949 122.809 173.253 127.177 179.317C127.192 180.631 127.4 181.936 127.793 183.19ZM106.193 208.154C99.4927 198.198 92.2299 186.714 86.5483 176.597C87.8883 175.954 89.0005 175.431 90.1663 174.788C93.9183 180.483 106.327 200.396 110.588 206.077C121.308 220.429 148.738 223.926 167.873 219.477C149.381 228.067 118.735 226.767 106.193 208.154ZM253.218 184.744C260.842 203.88 254.758 211.384 251.409 214.358C235.503 228.321 179.772 256.501 163.732 257.801C155.853 258.324 147.063 259.61 132.577 226.981C135.011 227.403 137.476 227.623 139.947 227.638C146.018 238.88 150.935 255.041 169.937 247.805C198.907 236.683 213.513 228.536 224.381 222.465C235.248 216.395 252.695 208.757 247.013 194.138C237.633 170.098 217.011 126.133 206.666 101.946C209.46 102.192 212.268 102.237 215.068 102.08C219.463 115.051 242.096 157.462 253.218 184.744ZM203.638 70.1879C204.549 67.2131 206.09 65.6587 208.81 65.9133C216.703 66.6905 212.562 95.7819 213.205 99.7885C203.825 99.7885 195.785 99.5339 193.038 91.1321C196.79 90.8775 198.854 91.2661 199.242 90.1003C199.778 88.3985 198.264 88.3985 192.435 88.3985C192.041 86.3547 191.955 84.2634 192.181 82.1943C194.512 82.3283 196.201 81.9397 198.519 82.0603C198.69 82.0987 198.869 82.0978 199.04 82.0575C199.211 82.0173 199.371 81.9388 199.508 81.8279C199.645 81.7171 199.754 81.5767 199.829 81.4173C199.904 81.258 199.941 81.0838 199.939 80.9079C199.805 79.0989 195.919 79.5679 192.824 79.5679C194.901 72.3855 202.458 74.8377 203.691 70.1879H203.638ZM198.599 70.9651C196.667 71.5217 194.921 72.5914 193.547 74.0605C182.358 50.8785 178.084 54.0275 155.719 64.7475C147.961 68.4995 159.083 73.2833 151.19 77.6785C145.12 81.1759 124.39 91.0785 119.258 92.4185C115.64 93.1957 114.219 92.1639 112.92 90.2209C111.62 88.2779 109.556 84.8609 104.129 87.2461C95.7273 90.9981 83.9621 92.8071 88.7459 108.592C90.6755 115.051 97.0137 130.434 99.5999 136.638C97.6645 136.886 95.7602 137.335 93.9183 137.978C77.8383 100.338 75.4933 92.9679 88.3573 86.3885C97.7373 81.6047 152.999 55.0995 165.153 51.3475C189.34 43.6827 192.06 59.1865 198.653 70.9785L198.599 70.9651Z" fill="#001434"/>
<path d="M53.4367 208.543C54.2139 220.818 60.2975 224.623 75.1715 224.047C82.7961 223.792 84.5515 224.436 85.771 222.707C86.6822 220.885 84.1361 221.367 78.1329 221.367C79.2987 215.819 79.2987 204.563 77.8783 196.282C82.7961 196.162 84.5783 196.282 84.8597 195.25C85.5029 193.441 82.5415 193.83 77.3691 193.709C75.8683 183.954 64.6793 184.329 64.1701 192.932C64.1701 196.255 52.3781 193.763 53.4367 208.543ZM66.5017 194.178C66.7563 190.158 68.3107 189.18 69.9991 189.14C78.6689 188.952 76.3239 218.62 75.5467 221.461C67.1449 221.461 59.9089 221.34 57.1887 214.225C60.4181 214.091 62.3611 214.479 62.7497 213.193C63.1383 211.907 60.9407 212.027 56.4115 211.639C55.9728 209.516 55.8419 207.34 56.0229 205.18C57.7113 205.18 59.2657 205.3 60.6861 205.18C62.1065 205.059 62.6157 203.143 60.9407 202.982C58.8637 202.768 58.4885 202.848 56.5455 202.714C58.2205 196.765 66.2471 198.708 66.5017 194.178Z" fill="#001434"/>
<path d="M134.909 39.9309C144.597 50.3963 157.139 40.3195 166.707 33.3381C168.395 31.9981 167.363 29.5861 166.452 30.3633C164.777 31.5291 163.223 32.8155 161.414 34.1153C159.471 30.2293 153.776 19.2413 150.024 13.4257C152.878 11.4827 154.164 11.2281 153.91 9.92829C153.655 8.62849 152.999 8.58829 148.55 11.2683C143.123 2.20989 131.88 7.90489 135.619 17.2045C126.493 21.5729 128.302 33.7267 134.909 39.9309ZM139.036 26.6113C138.647 24.9229 135.806 26.4773 132.054 28.5543C130.205 19.9381 139.867 20.9967 138.004 15.8779C136.972 13.0371 137.615 9.03049 141.622 9.28509C148.094 9.67369 156.496 31.6497 159.337 35.7903C151.712 40.8287 144.731 44.9693 138.259 39.6629C141.113 37.8539 143.042 36.8221 142.922 35.9243C142.922 33.4855 141.3 35.4553 136.222 37.8539C134.488 35.9276 133.206 33.6386 132.47 31.1539C137.749 28.0987 139.304 27.8977 139.036 26.6113Z" fill="#001434"/>
<path d="M83.3051 56.8684C85.5027 56.989 87.0571 54.9254 84.4709 54.2822C81.8847 53.639 77.6235 52.2053 77.3689 53.8937C77.1143 55.5821 81.4693 56.587 83.3051 56.8684Z" fill="#001434"/>
<path d="M56.8003 83.0402C53.3163 85.7202 57.4569 90.0216 60.5523 87.5694C63.6477 85.1172 59.7751 80.655 56.8003 83.0402Z" fill="#001434"/>
<path d="M127.149 83.5082C133.22 80.922 134.385 78.7244 133.608 77.17C132.697 75.227 130.633 74.5838 123.397 77.9472C116.805 81.0426 116.282 82.731 116.925 84.2854C117.568 85.8398 119.511 86.6036 127.149 83.5082Z" fill="#001434"/>
<path d="M145.897 76.3386C151.257 74.3956 148.094 65.4712 142.279 68.58C136.463 71.6888 140.59 78.3352 145.897 76.3386Z" fill="#001434"/>
<path d="M38.6963 85.0493C42.4483 85.8265 43.6141 80.0109 40.0363 79.3677C39.5614 79.2342 39.0604 79.2232 38.5802 79.3359C38.0999 79.4485 37.656 79.681 37.29 80.0117C36.924 80.3424 36.6477 80.7605 36.4871 81.2269C36.3264 81.6933 36.2866 82.1929 36.3714 82.6788C36.4725 83.2632 36.7491 83.8031 37.1643 84.2265C37.5796 84.6499 38.114 84.9369 38.6963 85.0493Z" fill="#001434"/>
<path d="M55.5142 43.0274C56.412 43.55 57.9664 42.6388 57.0686 41.4864C55.3802 39.2888 52.2848 35.4028 54.737 29.3192C58.9982 18.3312 69.0884 22.3378 77.1016 24.924C80.7062 26.13 80.867 12.3548 92.1096 14.7132C110.87 18.4652 91.2788 56.079 90.9438 58.424C90.9438 59.4558 92.1096 59.8444 93.53 57.9014C94.6958 56.2264 113.63 16.5222 92.6188 12.261C84.4716 10.5726 79.4332 16.7902 77.3696 21.641C77.3346 21.7416 77.2778 21.8332 77.2032 21.9093C77.1287 21.9854 77.0383 22.0441 76.9385 22.0812C76.8386 22.1183 76.7318 22.1329 76.6257 22.124C76.5195 22.1151 76.4167 22.0828 76.3244 22.0296C51.8694 11.2962 46.5362 38.0828 55.5142 43.0274Z" fill="#001434"/>
<path d="M144.985 99.9229C137.481 98.1139 132.925 103.943 131.156 108.593C117.381 101.893 103.539 111.903 111.753 125.53C118.735 137.296 144.597 140.914 146.017 138.582C146.928 137.162 161.802 103.93 144.985 99.9229ZM144.851 133.021C144.087 134.83 144.208 135.875 140.456 135.487C133.086 134.83 117.957 131.212 114.339 123.199C110.467 114.797 115.679 111.434 119.123 110.134C125.073 108.07 130.5 112.599 132.831 112.077C134.908 111.688 135.418 100.7 144.208 102.898C155.196 106.007 148.094 125.008 144.838 133.021H144.851Z" fill="#001434"/>
<path d="M69.7979 52.9822C72.2635 53.6388 72.9067 51.1732 71.2183 50.7846C68.5736 49.8227 66.089 48.4674 63.8483 46.7646C63.3391 46.376 62.3073 46.376 62.0393 47.0192C60.9405 49.2436 67.5333 52.473 69.7979 52.9822Z" fill="#001434"/>
<path d="M57.8448 96.0503C58.5818 94.8577 56.411 93.5847 55.2452 95.1391C50.7294 101.343 39.4734 99.0251 37.4098 90.8779C36.8872 88.6803 34.7298 90.3553 35.0782 92.0303C37.1552 101.598 52.3776 104.827 57.8448 96.0503Z" fill="#001434"/>
</svg>
