<svg width="265" height="265" viewBox="0 0 265 265" fill="none" xmlns="http://www.w3.org/2000/svg">
<path d="M84.8185 53.0022C86.5012 55.5859 88.3165 57.3879 89.6017 56.2219C90.887 55.0559 88.184 52.2469 86.6337 51.1869C85.7327 50.6172 83.202 50.3522 84.8185 53.0022Z" fill="#3D9CFB"/>
<path d="M52.5014 51.1332C43.4781 57.9039 44.5514 62.2631 54.1841 52.9484C55.8404 51.3584 54.5816 49.5829 52.5014 51.1332Z" fill="#3D9CFB"/>
<path d="M60.9156 50.2325C62.3333 51.266 62.2406 53.2005 62.3333 56.1685H76.2856C76.4181 53.2005 76.1663 51.1335 77.7166 50.2325C80.9432 48.4122 83.4541 45.5478 84.836 42.1105C86.2179 38.6732 86.3885 34.8679 85.3197 31.3208C84.2509 27.7737 82.0065 24.696 78.9557 22.5943C75.9049 20.4927 72.2295 19.4922 68.5343 19.7575C52.5548 20.6452 46.1021 39.659 60.9156 50.2325Z" fill="#3D9CFB"/>
<path d="M55.9999 129.467C66.7324 127.917 84.9512 132.819 92.4507 124.816C96.2004 120.934 95.2994 103.351 95.1669 96.1167C94.9019 76.5994 88.4359 80.4684 73.8344 79.3157C72.2842 79.1832 72.0324 75.9502 71.8999 72.5847C71.6349 68.4507 65.9507 70.1334 65.6857 74.2674C64.7847 87.5174 77.1999 85.7684 85.3354 85.9009C89.3104 86.0334 88.8334 92.7512 88.9659 95.9842C89.6019 113.951 89.3502 119.119 84.1827 121.702C77.9684 124.816 62.4659 121.186 53.4162 123.518C39.1989 127.135 41.7827 148.335 42.0344 160.101C42.3392 188.257 68.3357 163.4 69.3162 187.369C69.4354 190.987 65.1689 227.186 71.9662 226.801C72.3921 226.788 72.8112 226.691 73.1987 226.513C73.5862 226.336 73.9343 226.083 74.2226 225.769C74.5108 225.456 74.7338 225.088 74.8787 224.687C75.0235 224.287 75.0875 223.861 75.0667 223.436C74.3624 212.283 74.4466 201.094 75.3184 189.953C76.6434 174.967 70.9194 169.402 53.0849 169.018C46.8839 168.886 48.4342 155.318 48.1824 148.083C47.9307 140.849 48.1162 130.633 55.9999 129.467Z" fill="#3D9CFB"/>
<path d="M69.9518 13.6475C70.0843 12.3225 70.3493 6.92978 68.5341 6.66478C66.0828 6.14803 66.9838 10.6398 67.6331 13.1308C68.0173 14.416 69.8326 14.9328 69.9518 13.6475Z" fill="#3D9CFB"/>
<path d="M89.2171 15.9012C88.4088 14.5762 86.8718 15.3447 85.2421 16.418C83.6123 17.4912 82.3668 18.75 82.7776 19.9027C83.3606 21.5457 89.9591 17.0275 89.2171 15.9012Z" fill="#3D9CFB"/>
<path d="M50.3158 15.0652C48.1163 15.7145 50.3158 18.2982 52.3828 19.5967C54.4498 20.8952 55.4568 20.1267 54.5823 18.6825C53.7078 17.2382 51.9853 14.416 50.3158 15.0652Z" fill="#3D9CFB"/>
<path d="M94.0006 42.865C91.6686 42.3482 89.0849 40.9172 88.5681 42.0832C88.0514 43.8985 91.2181 44.7332 92.4504 44.932C95.6834 45.7005 96.3326 43.3817 94.0006 42.865Z" fill="#3D9CFB"/>
<path d="M46.5661 31.6159C49.4016 31.8676 48.1163 29.9331 46.6853 29.2839C45.2543 28.6346 38.7353 25.7991 38.0331 27.6011C37.1321 30.0656 43.7173 31.3509 46.5661 31.6159Z" fill="#3D9CFB"/>
<path d="M46.301 43.6342C47.9837 42.7332 48.2487 40.5337 45.6517 41.183C43.0547 41.8322 41.266 42.508 40.8685 43.25C39.7157 45.1845 44.6182 44.5352 46.301 43.6342Z" fill="#3D9CFB"/>
<path d="M97.4852 26.7001C94.1065 27.8131 89.628 29.1513 90.1182 30.6751C90.8072 32.8613 97.101 30.1583 99.6848 29.5091C102.269 28.8598 100.837 25.6136 97.4852 26.7001Z" fill="#3D9CFB"/>
<path d="M52.5014 179.1C46.9497 179.233 36.3497 181.3 35.7004 174.834C35.3162 170.7 35.5812 162.034 35.3162 157.251C35.0512 154.018 32.4674 155.449 32.3482 157.384C32.0076 163.329 32.136 169.293 32.7324 175.218C35.1837 185.05 44.6574 181.843 52.7664 182.068C59.8817 182.333 58.8349 190.986 58.4507 196.166C58.1989 199.651 57.2847 201.586 53.9324 201.851C50.0502 202.102 33.1167 203.176 22.3842 202.102C11.8637 201.148 12.7249 194.219 13.1092 138.383C36.4159 137.787 36.3497 141.934 35.2102 118.217C51.8919 116.666 75.2782 120.867 81.2274 115.368C83.5594 113.182 84.4604 107.418 82.7777 94.8171C82.3934 92.2333 79.7699 92.8826 79.8097 94.6978C79.8759 98.1826 81.3599 111.366 79.1604 113.049C73.3437 117.316 49.3082 113.049 35.3427 115.116C35.3807 111.839 35.2525 108.562 34.9584 105.298C34.6934 102.648 32.3084 102.648 32.3084 104.781C31.9772 118.614 34.3754 131.665 31.6592 134.368C29.4597 136.051 23.1262 135.15 13.3079 135.415C13.0429 117.316 13.0429 97.7983 12.3937 83.4486C12.1419 76.4658 15.5074 72.7161 23.2587 72.5836C39.5429 72.4643 56.3837 70.3973 56.4764 75.2998C57.0594 90.3253 56.9534 89.8748 52.7267 90.4313C46.2607 91.1998 44.3262 90.8156 36.0582 91.0673C32.3084 91.1998 31.5267 93.5318 35.0247 93.9161C41.2257 94.6978 52.7267 93.5318 53.1109 93.5318C61.1404 93.3331 59.8419 85.2506 59.8419 79.0496C59.8419 72.1993 57.6424 69.3638 52.0774 69.0988C47.5592 68.8338 34.2429 68.9663 23.1262 69.4831C11.2012 70.1323 9.04144 77.4331 9.29319 83.5811C10.0749 99.8653 9.42568 122.748 9.80993 143.034C10.4592 187.156 6.29869 204.13 22.0927 205.6C32.7404 206.178 43.4133 206.102 54.0517 205.375C59.8684 204.858 61.5379 201.241 61.6704 197.756C62.0017 189.316 62.7172 178.968 52.5014 179.1Z" fill="#001434"/>
<path d="M94.7814 139.668C100.333 139.933 110.549 140.583 110.681 135.534C110.814 127.916 110.297 123.265 108.363 124.166C106.137 125.279 108.442 130.791 107.197 134.898C105.872 139.801 86.3809 131.268 85.7449 143.299C85.5096 146.726 85.8137 150.169 86.6459 153.501C87.0302 155.701 90.1307 156.151 89.4947 152.733C88.0372 145.538 87.4011 139.377 94.7814 139.668Z" fill="#001434"/>
<path d="M62.3325 42.4009C67.129 42.7851 69.5273 31.8009 70.3488 35.0339C71.6738 38.5186 73.966 40.2279 75.5163 40.0689C78.7493 39.7376 80.2995 33.4439 79.001 32.4369C78.4843 31.9201 77.4508 32.4369 77.3315 33.0861C73.0518 45.0111 73.0783 25.5601 67.6325 32.7019C65.9498 35.0339 62.9818 44.6269 61.0075 37.1009C60.7558 36.4516 60.3715 36.1866 59.6825 36.5841C58.4503 37.1671 60.0005 42.0829 62.3325 42.4009Z" fill="#001434"/>
<path d="M85.8513 72.1998C91.0321 72.0673 95.6828 71.8155 101.632 71.683C102.533 79.315 100.307 93.2673 101.235 103.483C101.884 111.367 104.083 116.534 112.1 117.051C115.068 117.316 127.867 118.376 132.902 117.051C135.552 116.402 134.704 113.646 131.749 114.083C125.601 114.706 119.404 114.661 113.266 113.95C100.016 112.705 105.183 97.123 104.852 71.5505C151.532 70.5833 146.033 73.8163 147.769 91.982C140.803 92.565 133.8 92.565 126.834 91.982C123.852 91.717 123.601 91.717 123.468 88.3648C123.336 83.449 123.601 79.5668 122.05 79.315C119.718 79.05 120.368 83.184 120.368 88.59C120.368 93.1215 121.401 94.5393 126.569 94.9235C133.667 95.5065 140.802 95.5065 147.901 94.9235C149.319 104.874 146.483 110.121 149.968 110.174C153.718 110.241 151.293 87.8215 151.002 82.9058C150.75 74.3728 146.483 69.5895 136.003 68.8078C127.867 68.4235 94.6493 66.8733 84.6986 69.2053C81.9823 69.881 82.6183 72.3323 85.8513 72.1998Z" fill="#001434"/>
<path d="M84.3017 170.052C81.9962 154.88 59.0075 168.422 57.285 157.636C56.384 151.82 56.9007 148.6 56.9007 143.061C56.7682 134.012 69.051 138.146 72.284 137.245C74.2185 136.728 73.9667 134.793 71.7672 134.595C68.2046 134.17 64.6068 134.125 61.0347 134.462C53.8002 134.727 53.416 141.71 53.8002 148.944C54.1845 155.795 53.151 165.745 62.3332 165.494C77.9682 164.977 81.718 163.678 81.8505 180.877C81.8505 181.645 82.7515 181.91 83.6657 181.91C85.3352 181.818 84.951 174.702 84.3017 170.052Z" fill="#001434"/>
<path d="M76.285 56.1684H62.3327C61.0077 56.4334 61.816 64.8339 65.049 64.1184C66.7317 64.1184 64.9165 66.4372 69.3155 66.4372C74.218 66.4372 72.2835 64.2377 73.7012 63.9859C77.0667 64.4497 77.5835 55.7842 76.285 56.1684Z" fill="#001434"/>
<path d="M206.718 178.32C207.619 178.479 208.652 178.068 208.652 177.167C208.652 173.934 199.867 173.934 195.985 177.936C193.269 180.784 193.335 186.773 195.733 187.502C195.931 187.566 196.142 187.574 196.343 187.525C196.545 187.477 196.729 187.373 196.876 187.227C197.022 187.08 197.126 186.896 197.174 186.694C197.223 186.493 197.215 186.282 197.151 186.084C195.985 180.268 202.04 177.551 206.718 178.32Z" fill="#001434"/>
<path d="M229.469 186.335C235.405 185.818 240.969 184.652 243.938 182.201C252.735 174.966 247.038 156.867 233.337 155.568C207.235 153.117 203.485 188.402 229.469 186.335ZM235.669 159.199C244.852 160.617 247.594 175.218 242.003 179.75C237.087 183.725 222.618 184.652 218.153 180.783C223.387 174.9 231.602 165.135 235.669 159.199Z" fill="#001434"/>
<path d="M255.187 163.334C245.912 136.702 213.304 153.503 210.852 134.251C210.203 129.335 208.202 126.301 205.287 131.919C190.169 160.87 152.566 137.033 149.969 170.436C149.121 181.407 139.236 184.402 142.986 199.136C139.921 198.046 136.633 197.737 133.419 198.235C130.319 190.47 127.218 184.654 123.985 180.652C128.901 177.167 128.769 170.569 122.952 168.118C114.551 164.752 110.934 155.702 121.402 152.602C133.817 148.985 126.052 145.367 127.868 138.385C129.683 133.336 151.903 135.509 146.351 128.05C145.689 127.149 143.9 125.201 144.669 123.134C145.185 121.703 147.319 119.331 155.785 117.834C168.638 115.555 173.752 107.486 188.751 106.452C218.498 104.147 214.152 115.436 227.176 114.217C252.047 111.845 251.874 122.63 254.577 119.252C255.094 112.15 235.285 109.407 226.66 111.302C224.977 111.659 222.393 111.434 221.36 110.533C207.142 99.668 181.424 102.252 167.591 110.533C158.674 116.217 133.459 115.568 144.059 130.05C133.207 133.018 120.54 132.369 125.708 146.719C122.475 151.25 113.783 149.568 112.14 157.186C109.291 170.436 132.174 170.251 122.091 178.386C113.412 167.972 90.2905 175.485 103.09 202.051C87.5743 207.218 74.523 231.903 91.9733 243.404C93.7753 248.187 94.6233 250.254 96.2398 254.402C97.8563 258.549 101.924 260.47 99.9895 255.435C126.092 260.338 153.626 245.471 158.157 228.67C161.125 234.487 163.974 242.119 166.293 245.988C167.975 248.969 171.99 250.904 169.791 246.253C167.591 241.602 163.709 232.804 158.157 221.303C167.975 226.987 184.657 230.87 202.743 231.386C198.477 243.02 179.993 245.961 173.024 234.884C170.559 231.002 168.108 231.386 168.876 233.202C174.309 249.221 197.443 247.936 203.909 235.401C213.608 249.618 239.592 248.068 243.659 232.751C244.825 228.233 241.857 227.067 241.46 229.015C237.843 245.683 213.158 245.299 205.791 232.367C205.931 232.008 206.105 231.662 206.308 231.333C231.257 231.718 245.634 224.708 252.325 215.182C256.962 208.557 252.59 208.848 252.192 209.617C243.368 226.351 222.592 228.167 208.11 228.365C188.341 228.617 163.643 224.099 154.606 215.115C146.192 200.54 140.892 192.484 149.823 180.732C154.858 173.749 150.976 162.765 159.257 157.465C159.389 157.688 159.572 157.877 159.791 158.017C160.011 158.157 160.26 158.242 160.518 158.267C160.777 158.291 161.037 158.253 161.278 158.157C161.519 158.062 161.735 157.911 161.907 157.716C166.12 152.84 174.64 151.091 182.709 155.398C186.075 157.2 185.691 152.416 182.709 151.767C193.442 150.217 200.425 145.142 207.659 134.065C208.057 140.69 212.191 145.182 219.942 147.315C218.007 148.349 213.608 149.515 215.026 152.218C215.29 152.533 215.665 152.736 216.073 152.786C216.482 152.835 216.894 152.726 217.226 152.483C227.958 143.95 236.094 153.9 237.657 150.283C245.408 152.933 249.41 159.081 251.477 162.208C253.637 165.918 255.704 165.401 255.187 163.334ZM86.501 226.577C87.2828 215.977 96.0675 208.61 104.336 204.86C112.352 216.242 123.469 228.392 110.961 237.826C109.086 234.514 106.831 231.433 104.243 228.644C102.428 226.961 101.262 227.994 101.911 229.425C103.077 232.075 106.429 236.143 108.377 239.628C97.6178 247.088 85.2158 239.071 86.501 226.577ZM155.534 224.775C148.551 249.844 120.501 255.25 98.267 252.308C97.4853 250.36 96.4518 247.644 95.5508 245.325C105.502 247.777 118.169 239.376 119.719 229.942C122.051 215.592 97.4853 199.825 102.494 184.057C102.989 182.21 104.031 180.555 105.483 179.309C106.934 178.063 108.728 177.284 110.629 177.075C117.89 176.293 125.496 187.025 129.895 199.176C110.51 204.091 122.528 226.192 139.461 221.025C141.528 220.76 143.344 217.143 141.396 217.792C133.26 219.991 128.345 218.441 125.893 215.844C114.379 204.091 138.097 196.817 144.761 204.727C146.934 207.232 151.267 215.977 155.534 224.735V224.775Z" fill="#001434"/>
<path d="M191.069 178.319C195.336 159.584 173.235 150.15 160.316 160.869C153.585 166.566 153.85 178.968 158.885 183.619C165.616 189.568 188.101 191.503 191.069 178.319ZM184.352 183.102C178.151 186.72 163.284 184.653 160.502 180.452C166.318 175.669 176.137 167.653 182.086 161.902C190.036 164.751 191.069 179.101 184.352 183.102Z" fill="#001434"/>
<path d="M204.387 214.904C218.22 214.904 233.086 204.436 222.937 193.969C215.57 186.469 208.719 199.918 195.403 196.42C189.335 194.87 186.128 199.07 185.717 203.27C185.002 208.835 189.785 214.904 204.387 214.904ZM192.886 203.535C191.733 203.124 189.918 202.621 188.487 201.985C190.819 196.287 193.535 200.037 202.32 200.037C211.104 200.037 214.602 192.286 220.154 195.771C219.005 197.081 217.751 198.295 216.404 199.401C216.211 199.556 216.076 199.771 216.02 200.012C215.965 200.253 215.992 200.506 216.098 200.729C216.203 200.953 216.381 201.134 216.603 201.244C216.824 201.354 217.077 201.387 217.319 201.336C218.736 201.203 219.518 200.435 222.102 198.354C227.269 212.452 191.627 216.904 188.354 205.337C190.434 205.986 191.852 206.503 193.018 205.735C193.535 205.377 193.932 203.906 192.886 203.535Z" fill="#001434"/>
</svg>
